<svg width="80" height="80" fill="none" xmlns="http://www.w3.org/2000/svg"><g fill-rule="evenodd" clip-rule="evenodd"><path d="M40 80c22.091 0 40-17.909 40-40S62.091 0 40 0 0 17.909 0 40s17.909 40 40 40z" fill="url(#paint0_linear)"/><path d="M32.666 58.334c-1.296 0-1.076-.49-1.522-1.724l-3.812-12.54 29.333-17.402" fill="#C8DAEA"/><path d="M32.667 58.333c1 0 1.442-.457 2-1L40 52.147l-6.653-4.011" fill="#A9C9DD"/><path d="M33.346 48.136l16.12 11.91c1.84 1.015 3.167.49 3.626-1.708l6.561-30.921c.672-2.693-1.026-3.915-2.786-3.116l-38.53 14.857c-2.63 1.055-2.615 2.522-.48 3.176l9.888 3.086 22.891-14.442c1.08-.655 2.072-.303 1.258.42" fill="url(#paint1_linear)"/></g><defs><linearGradient id="paint0_linear" x1="30.004" y1="3.336" x2="10.004" y2="50" gradientUnits="userSpaceOnUse"><stop stop-color="#37AEE2"/><stop offset="1" stop-color="#1E96C8"/></linearGradient><linearGradient id="paint1_linear" x1="34.992" y1="42.456" x2="39.266" y2="56.281" gradientUnits="userSpaceOnUse"><stop stop-color="#EFF7FC"/><stop offset="1" stop-color="#fff"/></linearGradient></defs></svg>