<svg width="40" height="40" fill="none" xmlns="http://www.w3.org/2000/svg"><g fill-rule="evenodd" clip-rule="evenodd"><path d="M0 20C0 8.954 8.954 0 20 0s20 8.954 20 20-8.954 20-20 20S0 31.046 0 20z" fill="#4C6C91"/><path d="M21.047 25.897s.385-.042.582-.25c.18-.19.174-.55.174-.55s-.024-1.679.77-1.927c.783-.244 1.787 1.624 2.854 2.342.805.543 1.417.424 1.417.424l2.85-.04s1.49-.09.783-1.24c-.058-.094-.412-.85-2.118-2.405-1.788-1.628-1.548-1.365.604-4.18 1.31-1.715 1.834-2.762 1.67-3.21-.155-.427-1.12-.314-1.12-.314l-3.207.02s-.238-.032-.414.072c-.172.101-.284.338-.284.338s-.507 1.326-1.184 2.455c-1.428 2.38-2 2.506-2.233 2.358-.543-.345-.408-1.384-.408-2.123 0-2.307.357-3.27-.694-3.518-.348-.083-.605-.137-1.497-.146-1.145-.012-2.113.004-2.662.267-.365.175-.647.566-.474.589.211.027.691.127.946.467.329.44.317 1.424.317 1.424s.189 2.717-.441 3.054c-.432.231-1.025-.241-2.299-2.401-.652-1.106-1.144-2.33-1.144-2.33s-.096-.228-.266-.35c-.205-.149-.492-.195-.492-.195l-3.048.02s-.458.012-.626.207c-.15.173-.011.533-.011.533s2.386 5.48 5.088 8.243c2.479 2.532 5.291 2.366 5.291 2.366h1.276z" fill="#fff"/></g></svg>