<svg width="33" height="52" fill="none" xmlns="http://www.w3.org/2000/svg"><path d="M5.145 42.8h5.117v-5.04H5.145v5.04zm1.705-3.36h1.706v1.68H6.85v-1.68zM5.145 34.4h5.117v-5.04H5.145v5.04zm1.705-3.36h1.706v1.68H6.85v-1.68zm9.382-23.52a.846.846 0 0 0 .853-.84.846.846 0 0 0-.853-.84.846.846 0 0 0-.853.84c0 .464.382.84.853.84zM27.32 22.64H13.674v1.68H27.32v-1.68z" fill="#000"/><path d="M29.025 9.2H27.32c0-1.848-1.536-3.36-3.412-3.36h-1.706c0-2.856-2.388-5.04-5.117-5.04H15.38c-2.9 0-5.117 2.184-5.117 5.04H8.556c-1.876 0-3.411 1.512-3.411 3.36H3.439C1.562 9.2.027 10.712.027 12.56v35.28c0 1.848 1.535 3.36 3.412 3.36h25.587c1.876 0 3.411-1.512 3.411-3.36V12.56c0-1.848-1.535-3.36-3.412-3.36zM6.85 9.2c0-1.008.683-1.68 1.706-1.68h3.412V5.84c0-1.848 1.535-3.36 3.411-3.36h1.706c1.876 0 3.412 1.512 3.412 3.36v1.68h3.411c1.024 0 1.706.672 1.706 1.68v1.68c0 1.008-.682 1.68-1.706 1.68H8.556c-1.023 0-1.706-.672-1.706-1.68V9.2zm23.881 38.64c0 1.008-.682 1.68-1.706 1.68H3.44c-.853 0-1.706-.672-1.706-1.68V12.56c0-1.008.682-1.68 1.706-1.68h1.706c0 1.848 1.535 3.36 3.411 3.36h15.352c1.877 0 3.412-1.512 3.412-3.36h1.706c.852 0 1.705.672 1.705 1.68v35.28z" fill="#000"/><path d="M27.32 31.04H13.674v1.68H27.32v-1.68zm0 8.4H13.674v1.68H27.32v-1.68zM5.145 26h5.117v-5.04H5.145V26zm1.705-3.36h1.706v1.68H6.85v-1.68z" fill="#000"/></svg>