<svg width="22" height="22" fill="none" xmlns="http://www.w3.org/2000/svg"><path d="M20 0h-6c-.6 0-1 .4-1 1v3h-1c-.4 0-.7.2-.9.6l-2 4c-.2.3-.1.7 0 1 .2.2.6.4.9.4h8c.3 0 .7-.2.9-.5.2-.3.2-.7 0-1l-2-4c-.2-.3-.5-.5-.9-.5h-1V2h5v19c0 .6.4 1 1 1s1-.4 1-1V1c0-.6-.4-1-1-1h-1zm-4.6 6l1 2h-4.8l1-2h2.8z" fill="#000" fill-opacity=".9"/><path d="M7 22h6c.6 0 1-.4 1-1v-2.4l1.4-.7c.2-.1.4-.3.5-.5l2-3c.1-.3.1-.7-.1-.9-.2-.3-.5-.5-.8-.5H7.1L8 6.1c0-.3-.1-.6-.2-.8-.2-.2-.5-.3-.8-.3H5V3H3v2H1c-.3 0-.6.1-.8.3-.1.3-.2.5-.2.8l1 8c.1.5.5.9 1 .9h1.4L6 18.2V21c0 .6.4 1 1 1zM2.1 7h3.7L5 13H2.9l-.8-6zm3.5 8h9.9l-1.3 1.3-1.7.8c-.3.2-.5.5-.5.9v2H8v-2c0-.2 0-.3-.1-.4L5.6 15z" fill="#000" fill-opacity=".9"/></svg>