<svg width="21" height="21" fill="none" xmlns="http://www.w3.org/2000/svg"><path fill-rule="evenodd" clip-rule="evenodd" d="M9.857 6.338c.518-.698.703-1.434.117-2.084C8.66 2.414 7.775 1.277 7.22.73 6.166-.313 4.431-.172 3.518.728c-.49.483-.657.65-1.16 1.16C-.449 4.697 1.262 10.63 5.81 15.184c4.548 4.552 10.482 6.264 13.293 3.45.465-.447.858-.84 1.169-1.169.895-.946 1.03-2.604-.006-3.681-.532-.553-1.617-1.394-3.534-2.766-.587-.525-1.284-.411-1.922.008-.307.201-.53.405-.953.827l-.766.767c-.1.1-1.471-.585-2.801-1.917C8.96 9.37 8.274 7.999 8.374 7.899l.767-.768c.134-.134.198-.198.28-.285.171-.18.313-.343.436-.508zm4.649 7.695l.766-.767c.232-.232.383-.375.505-.474 1.68 1.207 2.653 1.965 3.05 2.378.239.248.202.7-.006.92-.287.302-.66.675-1.117 1.117-1.818 1.819-6.608.437-10.479-3.438C3.353 9.893 1.972 5.103 3.776 3.298c.502-.51.66-.669 1.144-1.145.182-.179.676-.219.896-.001.427.422 1.22 1.436 2.385 3.06-.06.074-.136.159-.228.255a9.633 9.633 0 0 1-.246.25l-.766.767c-1.303 1.303-.193 3.52 1.916 5.632 2.107 2.11 4.326 3.22 5.629 1.917z" fill="#000" fill-opacity=".9"/></svg>