<svg width="21" height="21" fill="none" xmlns="http://www.w3.org/2000/svg"><path d="M11.225 8.594l-5.509 5.51-1.87-.777-.167.17 2.38 1.586 1.588 2.38.168-.168-.776-1.87 5.509-5.508 4.328 6.252.21-.208-2.887-7.696 4.4-4.398a.935.935 0 1 0-1.323-1.323l-4.4 4.4-7.694-2.887-.21.21 6.253 4.327zm5.39 10.483l-4.33-6.253-3.04 3.04.777 1.87L7.356 20.4l-2.645-3.967-3.968-2.646 2.666-2.666 1.869.776 3.04-3.04-6.253-4.328 2.646-2.645 7.695 2.885 3.547-3.547a2.807 2.807 0 1 1 3.968 3.968l-3.547 3.547 2.886 7.696-2.646 2.645h.001z" fill="#000" fill-opacity=".5"/></svg>