<svg xmlns="http://www.w3.org/2000/svg" xmlns:xlink="http://www.w3.org/1999/xlink" width="425.197" height="117.706"><path fill="#27241F" d="M403.748 42.533h.688c1.113 0 1.63-.687 2.246-2.458.723-2.057 1.51-3.215 2.764-3.215a5.1 5.1 0 0 1 1.2.158v1.546a3.464 3.464 0 0 0-.804-.123c-.758 0-1.082.65-1.615 2.073-.443 1.195-1.03 2.318-1.82 2.74 1.305.44 2.508 2.284 3.436 3.846.512.862.752 1.316 1.578 2.494h-2.04l-1.615-2.582c-1.63-2.615-2.44-2.864-3.328-2.864h-.688v5.446h-1.77V37.018h1.77v5.515zm10.365-5.516h1.768v9.75l7.845-9.75h1.472v12.577h-1.765V39.81l-7.844 9.784h-1.475M140.88 23.556v-9.31h-4.822v1c0 3.814-1.044 6.974-2.247 8.31h7.07zm1.767-10.96v10.96h1.39v5.076h-1.58v-3.46h-9.864v3.46h-1.613v-5.076h.805c1.425-1.65 2.592-3.9 2.592-9.52v-1.44h8.27zm11.431-.001v1.616h-5.2v3.814h5.024v1.616h-5.024v3.916h5.368v1.615h-7.137V12.596m21.091-.001V25.17h-1.767V14.21h-6.865v10.96H157.8V12.596m17.16 7.254h3.808l-1.972-4.568-1.836 4.567zm7.98 5.323h-1.804l-1.647-3.707h-5.214l-1.562 3.707h-1.803l5.285-12.647h1.235l5.51 12.647zm4.48-7.063h2.004c1.306 0 2.165-.717 2.165-1.966 0-.932-.5-1.933-2.095-1.933h-2.076v3.9zm-1.77-5.515h3.846c2.674 0 3.912 1.617 3.912 3.617 0 1.97-1.304 3.516-4.153 3.516h-1.835v5.443h-1.77V12.596zm20.182 0v1.616h-4.24v10.96h-1.767V14.21h-4.24v-1.615m14.459 7.255h3.813l-1.975-4.568-1.838 4.567zm7.98 5.323h-1.802l-1.646-3.707h-5.22l-1.56 3.707H206l5.278-12.647h1.238l5.51 12.647zm14.176 0h-1.768V15.39h-.036l-3.792 4.862h-.274l-3.793-4.863h-.033v9.783h-1.766V12.596h1.66l4.07 5.163 4.083-5.164h1.65m11.014 0v1.616h-5.197v3.814h5.03v1.616h-5.03v3.916h5.37v1.615h-7.14V12.596m12.477 5.479h6.863v-5.48h1.767v12.578h-1.767v-5.48h-6.863v5.48h-1.766V12.595h1.765m21.896 0v1.616h-4.237v10.96h-1.768V14.21h-4.238v-1.615m21.416 5.48h6.865v-5.48h1.764v12.578h-1.764v-5.48h-6.865v5.48h-1.768V12.595h1.768m15.391 7.255h3.813l-1.975-4.568-1.838 4.567zm7.98 5.323h-1.803l-1.645-3.707h-5.213l-1.564 3.707h-1.803l5.287-12.647h1.232l5.51 12.647zm3.209-12.578l3.64 6.94 3.274-6.94h1.752l-6.075 12.576h-1.715l1.92-3.914-4.635-8.66m14.986 5.513h.684c1.117 0 1.633-.686 2.248-2.46.72-2.056 1.512-3.212 2.764-3.212.48 0 .912.087 1.2.155v1.547a3.61 3.61 0 0 0-.806-.12c-.756 0-1.078.645-1.613 2.07-.443 1.196-1.027 2.318-1.818 2.738 1.304.442 2.505 2.287 3.43 3.846.52.864.755 1.317 1.58 2.497h-2.044l-1.613-2.582c-1.627-2.613-2.432-2.86-3.328-2.86h-.684v5.443h-1.77V12.595h1.77v5.516zm10.363-5.515h1.767v9.747l7.844-9.747h1.473V25.17h-1.77v-9.78l-7.838 9.783h-1.477M346.744 27c.6-.405.822-1.354.654-2.006-.518-.013-.88-.438-.88-1.035 0-.616.448-1.05 1.065-1.05.77 0 1.27.7 1.27 1.787 0 1.055-.688 2.25-2.11 2.653V27zm-204.39 10.01v12.58h-1.766V38.63h-6.866v10.96h-1.766V37.01m16.214 5.518h2.012c1.3 0 2.16-.723 2.16-1.97 0-.93-.496-1.93-2.094-1.93h-2.077v3.9zm-1.765-5.517h3.844c2.678 0 3.91 1.618 3.91 3.618 0 1.97-1.3 3.516-4.152 3.516h-1.836v5.443h-1.767V37.01zm16.111 11.084c2.766 0 4.788-2.053 4.788-4.795 0-2.757-2.022-4.794-4.788-4.794-2.744 0-4.77 2.037-4.77 4.794 0 2.742 2.026 4.795 4.77 4.795m0-11.24c4.05 0 6.605 2.95 6.605 6.444 0 3.39-2.485 6.445-6.638 6.445-4.017 0-6.555-3.038-6.555-6.446 0-3.48 2.61-6.445 6.59-6.445m20.575 12.735h-1.768v-9.784h-.033l-3.79 4.866h-.28l-3.79-4.866h-.036v9.784h-1.767V37.013h1.663l4.064 5.16 4.088-5.16h1.648m15.926 12.575h-1.77V37.01h1.77v12.58zm-10.107-1.616h2.455c1.596 0 2.076-1.02 2.076-1.917 0-1.28-.876-2.054-2.23-2.054h-2.3v3.972zm0-5.586h2.197c2.796 0 4.188 1.616 4.188 3.582 0 2.004-1.27 3.62-3.965 3.62h-4.188V37.01h1.768v5.376zm15.922 5.587H210v-10.96h1.765v10.96h5.167v-10.96h1.767v12.575h-15.633V37.013h1.766m28.266-.003v12.58h-1.766V38.63h-5.89v7.01c0 2.37-.89 4.072-3.345 4.072-.223 0-.36 0-.55-.017l-.257-1.63h.41c1.838 0 1.975-1.02 1.975-2.92V37.01h9.423zm11 0v1.618h-5.2v3.81h5.026v1.616h-5.026v3.918h5.37v1.616h-7.14V37.01m12.462 5.483h6.863V37.01h1.768v12.58h-1.767v-5.48h-6.863v5.48h-1.768V37.01h1.768m14.446 5.483h6.863V37.01h1.768v12.58H270.9v-5.48h-6.863v5.48h-1.767V37.01h1.767m18.756 11.085c2.764 0 4.79-2.053 4.79-4.795 0-2.757-2.026-4.794-4.79-4.794-2.746 0-4.77 2.037-4.77 4.794-.002 2.742 2.024 4.795 4.77 4.795m0-11.24c4.05 0 6.607 2.95 6.607 6.444 0 3.39-2.49 6.445-6.64 6.445-4.015 0-6.556-3.038-6.556-6.446 0-3.48 2.61-6.445 6.59-6.445m15.614-.371c-1.715 0-2.846-1.068-3.156-2.51h1.492c.277.755.734 1.09 1.664 1.09.912 0 1.39-.335 1.648-1.09h1.51c-.306 1.443-1.443 2.51-3.158 2.51m-5.472.53h1.768v9.75l7.842-9.75h1.473v12.576h-1.765v-9.783l-7.844 9.783h-1.474V37.01zm31.916-.002v12.58h-1.768V38.63h-6.863v10.96h-1.767V37.01m20.526 11.085c2.763 0 4.786-2.053 4.786-4.795 0-2.757-2.023-4.794-4.787-4.794-2.747 0-4.774 2.037-4.774 4.794 0 2.742 2.026 4.795 4.773 4.795m0-11.24c4.048 0 6.604 2.95 6.604 6.444 0 3.39-2.49 6.445-6.64 6.445-4.017 0-6.556-3.038-6.556-6.446 0-3.48 2.608-6.445 6.59-6.445m20.508.157v12.58h-1.77V38.63h-5.88v7.01c0 2.37-.897 4.072-3.35 4.072-.226 0-.358 0-.552-.017l-.256-1.63h.414c1.834 0 1.97-1.02 1.97-2.92V37.01h9.424zm4.034 0h1.765v9.75l7.844-9.75h1.473v12.58h-1.768v-9.783l-7.84 9.783h-1.474m24.349-12.58v1.618h-4.238v10.96h-1.773v-10.96h-4.236V37.01m13.27 0h1.764v9.75l7.844-9.75h1.473v12.58h-1.765v-9.783l-7.842 9.783h-1.474M132.37 61.164h1.764v9.75l7.843-9.75h1.477V73.74h-1.767v-9.78l-7.845 9.783h-1.473m31.899-12.579V73.74H162.5V62.78h-6.863v10.96h-1.767V61.165m16.215 5.513h2.004c1.31 0 2.16-.72 2.16-1.967 0-.93-.493-1.93-2.09-1.93h-2.075v3.898zm-1.765-5.514h3.84c2.678 0 3.915 1.617 3.915 3.618 0 1.97-1.304 3.515-4.152 3.515h-1.837v5.444h-1.766V61.165zm17.93 0v1.617h-5.198v3.814h5.027v1.615h-5.028v3.914h5.373v1.617h-7.14V61.165M198.9 72.124v-9.31h-4.824v1.003c0 3.813-1.046 6.975-2.247 8.307h7.07zm1.767-10.96v10.96h1.39V77.2h-1.58v-3.46h-9.865v3.46H189v-5.077h.803c1.43-1.65 2.593-3.898 2.593-9.52v-1.44h8.27zm14.858 0V73.74h-1.765V62.78h-6.866v10.96h-1.767V61.165m16.217 5.513h2.008c1.305 0 2.162-.72 2.162-1.967 0-.93-.496-1.93-2.092-1.93h-2.078v3.898zm-1.768-5.514h3.846c2.672 0 3.912 1.617 3.912 3.618 0 1.97-1.305 3.515-4.154 3.515h-1.836v5.444h-1.768V61.165zm10.984 0h1.766v9.75l7.842-9.75h1.477V73.74h-1.768v-9.78l-7.842 9.783h-1.474m16.899-7.099h6.868v-5.48h1.764V73.74h-1.764v-5.48h-6.867v5.48h-1.767V61.164h1.768m12.681 0h1.767v9.75l7.844-9.75h1.473V73.74h-1.764v-9.78l-7.844 9.783h-1.477m26.598-.003h-1.767v-9.783h-.034l-3.794 4.864h-.273l-3.795-4.863h-.033v9.784h-1.766V61.166h1.663l4.07 5.16 4.08-5.16h1.647m6.764 7.251h3.81l-1.974-4.565-1.836 4.565zm7.98 5.324h-1.803l-1.65-3.704h-5.212l-1.566 3.705h-1.797l5.28-12.646h1.237l5.51 12.647zm9.936-12.577v1.617h-4.238v10.96h-1.768V62.78h-4.24v-1.616m20.232 0v1.617h-5.2v3.814h5.026v1.615h-5.027v3.914h5.375v1.617h-7.142V61.165m21.058-.001V73.74h-1.768V62.78h-5.887v7.01c0 2.37-.894 4.073-3.35 4.073-.222 0-.36 0-.544-.017l-.262-1.63h.416c1.834 0 1.97-1.02 1.97-2.92v-8.132h9.424zm5.799 10.962h2.44c1.59 0 2.09-1.02 2.09-1.917 0-1.28-.89-2.055-2.247-2.055h-2.283v3.97zm0-5.586h2.178c2.802 0 4.208 1.616 4.208 3.582 0 2.005-1.29 3.62-3.982 3.62h-4.168V61.166h1.766v5.375zm19.037-2.565c-1.512-.913-2.816-1.318-4.238-1.318-2.8 0-4.89 2.056-4.89 4.813 0 2.828 2.007 4.78 4.958 4.78 1.39 0 2.914-.492 4.287-1.426v1.986c-1.2.632-2.52 1.09-4.443 1.09-4.613 0-6.62-3.617-6.62-6.254 0-3.847 2.827-6.64 6.726-6.64 1.268 0 2.537.297 4.22 1.02v1.95zm11.555-2.811v1.617h-4.24v10.96h-1.766V62.78h-4.24v-1.616m15.031 10.96h2.215c2.076 0 2.643-1.053 2.643-2 0-1.14-.873-1.95-2.73-1.95h-2.128v3.95zm0-5.567h1.168c1.75 0 2.61-.67 2.61-2.02 0-.933-.534-1.756-2.145-1.756h-1.633v3.777zm-1.766-5.393h3.568c2.66 0 3.793 1.617 3.793 3.213 0 1.303-.602 2.163-1.89 2.69v.033c1.856.354 2.972 1.585 2.972 3.288 0 1.543-1.133 3.354-4.22 3.354h-4.224V61.164zm14.379 7.253h3.81l-1.974-4.565-1.837 4.565zm7.98 5.324h-1.798l-1.652-3.704h-5.215l-1.564 3.705h-1.797l5.285-12.646h1.232l5.51 12.647zM141.327 84.754v2.303h-5.872v10.275h-3.053V84.754m18.102 2.461c-2.336 0-3.878 1.526-3.878 3.83 0 2.298 1.542 3.827 3.878 3.827 2.332 0 3.876-1.528 3.876-3.828 0-2.303-1.544-3.83-3.876-3.83m0 10.276c-4.496 0-7.036-3.232-7.036-6.445 0-3.04 2.4-6.45 7.036-6.45 4.632 0 7.033 3.43 7.033 6.45 0 3.232-2.623 6.445-7.033 6.445m12.642-7.518h1.424c1.408 0 1.905-.51 1.905-1.458 0-1.072-.584-1.457-2.246-1.457h-1.084v2.915zm-3.054-5.218h5.473c2.815 0 4.065 2.003 4.065 3.723 0 1.777-1.214 3.797-4.046 3.797h-2.438v5.058h-3.054V84.754zm18.62 2.461c-2.336 0-3.878 1.526-3.878 3.83 0 2.298 1.542 3.827 3.878 3.827 2.333 0 3.88-1.528 3.88-3.828 0-2.303-1.547-3.83-3.88-3.83m0 10.276c-4.495 0-7.036-3.232-7.036-6.445 0-3.04 2.4-6.45 7.036-6.45 4.632 0 7.033 3.43 7.033 6.45 0 3.232-2.624 6.445-7.033 6.445m14.808-10.433v1.51c0 2.512-.617 4.76-2.02 6.465h5.744v-7.975h-3.724zm6.78-2.303V95.03h1.372v5.447h-2.883V97.33h-8.6v3.147h-2.88V95.03h.892c1.544-1.984 2.367-3.812 2.367-7.08v-3.197h9.73zm10.04 3.006l-1.803 4.88h3.792l-1.99-4.88zm7.19 9.572h-3.298l-1.007-2.49h-5.495l-.907 2.49h-3.244l4.94-12.578h3.552l5.457 12.578zm11.77-12.578l3.948 4.673 3.947-4.673h2.657v12.578h-3.05v-7.85l-3.314 3.933h-.478l-3.317-3.934v7.852h-3.05V84.754m23.817 2.461c-2.335 0-3.88 1.526-3.88 3.83 0 2.298 1.545 3.827 3.88 3.827s3.876-1.528 3.876-3.828c0-2.303-1.54-3.83-3.875-3.83m0 10.276c-4.5 0-7.036-3.232-7.036-6.445 0-3.04 2.402-6.45 7.037-6.45 4.63 0 7.034 3.43 7.034 6.45 0 3.232-2.625 6.445-7.033 6.445m21.91-8.994c-1.336-.773-2.713-1.283-4.238-1.283-2.607 0-4.443 1.582-4.443 3.813 0 2.25 1.816 3.847 4.377 3.847 1.61 0 2.692-.508 4.456-1.372v2.743c-1.715.913-3.02 1.248-4.836 1.248-4.77 0-7.158-3.16-7.158-6.414 0-3.354 2.697-6.48 7.396-6.48 1.72 0 3.244.37 4.445 1.09v2.81zm7.02 1.212h.855c1.102 0 1.715-.577 2.11-2.53.345-1.667 1.563-2.583 2.815-2.583.684 0 1.29.126 1.682.23v2.408c-.19-.036-.377-.09-.72-.09-.513 0-1.067.336-1.306 1.317-.24 1.07-.737 2.02-1.63 2.494 1.732.23 2.37 2.355 4.17 6.375h-3.346c-1.322-2.652-1.855-5.32-3.518-5.32h-1.115v5.32h-3.056V84.752h3.057v4.955zm14.242 5.324h1.732c1.7 0 2.283-.46 2.283-1.55 0-.928-.787-1.418-1.87-1.418h-2.145v2.968zm0-5.272h1.61c1.116 0 1.565-.7 1.565-1.37 0-.65-.45-1.333-1.564-1.333h-1.61v2.703zm-3.055-5.006h5.3c2.903 0 4.087 1.757 4.087 3.162 0 1.035-.652 1.984-1.684 2.495 1.752.478 2.61 1.758 2.61 3.233 0 1.44-.757 3.69-4.343 3.69h-5.97v-12.58zm28.86 12.578h-3.054V84.754h3.055v12.578zm-11.922-2.3h1.87c1.048 0 1.853-.403 1.853-1.477 0-1.14-.82-1.476-1.87-1.476h-1.852v2.953zm0-5.252h2.832c2.916 0 4.137 2.02 4.137 3.774 0 1.775-1.22 3.777-4.137 3.777h-5.885V84.755h3.053v5.026z"/><defs><path id="a" d="M53.163 113.19c-1.534 0-6.294-.157-7.783-.41 1.77.737 3.653 1.55 5.53 2.275a28.542 28.542 0 0 1-2.63-.313c3.765 1.556 7.428 2.614 10.808 2.962h5.854c22.66-1.665 37.35-19.604 40.107-25.465 4.044-8.595 1.485-8.69 1.777-10.563.015-.043 1.37-2.867 2.72-5.697 1.36-2.84 2.722-5.683 2.73-5.694.29-1.472.466-2.544.542-3.02-7.613 18.88-38.068 45.924-59.657 45.924"/></defs><clipPath id="b"><use xlink:href="#a" overflow="visible"/></clipPath><linearGradient id="c" gradientUnits="userSpaceOnUse" x1="-390.222" y1="693.715" x2="-388.819" y2="693.715" gradientTransform="rotate(-30 -76681.543 -19741) scale(51.6287)"><stop offset="0" stop-color="#8C1C13"/><stop offset=".007" stop-color="#8C1C13"/><stop offset=".092" stop-color="#972014"/><stop offset=".247" stop-color="#B82D14"/><stop offset=".395" stop-color="#E13D13"/><stop offset=".623" stop-color="#B92D14"/><stop offset=".866" stop-color="#982014"/><stop offset="1" stop-color="#8C1C13"/></linearGradient><path clip-path="url(#b)" fill="url(#c)" d="M62.238 146.908l72.42-41.812-38.7-67.03-72.418 41.81"/><defs><path id="d" d="M17.625 8.11c-.083.036-10.167 3.81-10.167 3.81C-.622 18.794-.026 22.183.032 31.346c.055 8.307.233 56.912 16.446 66.296-2.076-1.714-3.49-4.41-4.52-8 1.71 2.867 3.723 5.126 6.098 6.505-4.406-3.65-5.7-11.896-6.84-23.9-1.133-12.005-4.9-51.073 4.96-59.417 4.126-3.493 5.165-4.758 2.43-4.758-.29 0-.607.014-.98.04"/></defs><clipPath id="e"><use xlink:href="#d" overflow="visible"/></clipPath><linearGradient id="f" gradientUnits="userSpaceOnUse" x1="-431.369" y1="707.475" x2="-429.966" y2="707.475" gradientTransform="translate(3692.777 -6003.55) scale(8.5606)"><stop offset="0" stop-color="#931B14"/><stop offset=".166" stop-color="#992316"/><stop offset=".433" stop-color="#AC361C"/><stop offset=".765" stop-color="#CE5C29"/><stop offset="1" stop-color="#ED7F37"/></linearGradient><path clip-path="url(#e)" fill="url(#f)" d="M-.62 8.073h21.96v89.57H-.62z"/><defs><path id="g" d="M2.296 64.75l-.014-.024s2.32 16.638 6.84 24.643c7.038 12.453 22.11 21.143 36.293 25.37 6.227 1.855 10.61 2.652 13.66 2.966h5.935c.036-.006.078-.008.113-.01-38.938-6.45-62.863-53.19-62.863-53.19l.036.244"/></defs><clipPath id="h"><use xlink:href="#g" overflow="visible"/></clipPath><linearGradient id="i" gradientUnits="userSpaceOnUse" x1="-386.276" y1="701.019" x2="-384.873" y2="701.019" gradientTransform="rotate(39.8 50376.701 57585.361) scale(65.103)"><stop offset="0" stop-color="#EA6A10"/><stop offset=".723" stop-color="#A01A16"/><stop offset=".808" stop-color="#AE1C19"/><stop offset=".964" stop-color="#D52121"/><stop offset="1" stop-color="#E02223"/></linearGradient><path clip-path="url(#h)" fill="url(#i)" d="M-23.903 95.908l63.268 52.712 51.92-62.316L28.017 33.59"/><defs><path id="j" d="M92.968 3.67c8.54 10.423 12.125 19.48 12.643 49.21.51 29.725-1.055 39.603-1.786 41.535 13.143-21.74 11.92-52.73 10.666-67.166C112.954 9.48 98.262 5.04 92.968 3.67z"/></defs><clipPath id="k"><use xlink:href="#j" overflow="visible"/></clipPath><linearGradient id="l" gradientUnits="userSpaceOnUse" x1="-380.933" y1="701.969" x2="-379.53" y2="701.969" gradientTransform="rotate(90 9984.123 33562.557) scale(61.8855)"><stop offset="0" stop-color="#792012"/><stop offset=".055" stop-color="#7E2112"/><stop offset=".131" stop-color="#8E2614"/><stop offset=".219" stop-color="#A82D15"/><stop offset=".316" stop-color="#D03814"/><stop offset=".35" stop-color="#E13D13"/><stop offset=".43" stop-color="#E13D13"/><stop offset=".549" stop-color="#D33814"/><stop offset=".765" stop-color="#B12B14"/><stop offset="1" stop-color="#881C12"/></linearGradient><path clip-path="url(#k)" fill="url(#l)" d="M92.968 3.67h23.998v90.745H92.968z"/><defs><path id="m" d="M1.453 18.876s15.42-8.72 56.246-8.72c22.74 0 39.342 2.5 54.922 8.97v-.003C110.152 12.635 105.602 0 58.392 0 29.252 0 8.496 5.317 1.452 18.876"/></defs><clipPath id="n"><use xlink:href="#m" overflow="visible"/></clipPath><linearGradient id="o" gradientUnits="userSpaceOnUse" x1="-387.738" y1="696.81" x2="-386.336" y2="696.81" gradientTransform="translate(30144.74 -54161.406) scale(77.7414)"><stop offset="0" stop-color="#E13D13"/><stop offset=".055" stop-color="#D43714"/><stop offset=".212" stop-color="#B82A15"/><stop offset=".379" stop-color="#A62115"/><stop offset=".56" stop-color="#9B1B15"/><stop offset=".781" stop-color="#971A15"/><stop offset=".832" stop-color="#9F1915"/><stop offset=".912" stop-color="#B51716"/><stop offset="1" stop-color="#D71016"/></linearGradient><path clip-path="url(#n)" fill="url(#o)" d="M1.453 0h111.17v19.126H1.452z"/><defs><path id="p" d="M50.92 88.387c2.514.045 3.834 1.69 5.617 3.315l.014.008c-.282.033-.568.05-.845.05-2.222 0-4.225-1.025-4.786-3.373m-16.186-.238c-.225-.455.444-.98.224-1.655-.224-.676-.112-1.915-.112-1.915.112-.113.61 1.012 1.063 2.198.264.722.06.705-.168.693-.146-.012-.296-.023-.34.152-.113.446.63.873.333 1.184-.02.024-.065.04-.11.04-.24 0-.707-.324-.89-.697m8.613-2.053c.1-1.075 1.55-1.692 2.256-1.934.097-.036.19-.067.295-.088.002-.005.017-.008.02-.01a.361.361 0 0 1 .07-.015c.732 1.388-.146 2.815-1.272 2.815-.45 0-.933-.226-1.37-.768m33.668-2.928v.567c-.722 1.84-2.444 3.016-4.453 3.515-.233 1.005-.586 1.618-.748 2.67-7.095-2.424 4.838-6.075 5.2-6.753m-37.202-.82c-1.564-.358-2.785-.935-3.737-1.58.1-.264.22-.548.34-.846.24.15.47.268.668.33 1.383.418 2.564.957 3.395 1.085.503.083-.353 1.02-.627 1.02a.088.088 0 0 1-.04-.01m.68 4.77c-.602-1.737-.214-4.974 2.15-6.237 2.37-1.264 4.35-1.422 6.085-.946 1.74.47 3.864.445 4.532.202.66-.24 1.652-.35 2.04-.195h.014a.01.01 0 0 0 .007.004h.004c.934 1.186 2.297 2.17 3.277 3.086-.28.06-1.192-.143-1.38-.28.774 1.588 2.422 2.49 4.453 3.344v1.145c-1.312-.717-3.142-.655-4.93-.598-1.834.063-3.625.122-4.75-.66-1.615-1.108-1.704-2.576-.996-3.787-.076-.268-.228-.4-.61-.527-.71-.235-5.204-1.128-7.714 1.095-1.412 1.25-1.978 3.457-.792 6.144-.162-.036-1.06-.858-1.387-1.79m-7.567-10.345s.84.925 1.83 1.826c-.093.267-.19.522-.296.766-1.206-1.353-1.534-2.593-1.534-2.593m32.545-.98c1.507-.452 2.05.944 1.9 1.917 0 0-.28 1.63-.335 2.927-.058 1.295 1.115.787 1.9 2.705.78 1.91-1.286 3.995-3.02 5.122 0 0 .506-1.357 1.456-3.324-.223.4-1.284.956-2.904 1.578.805-1.165 1.264-2.176 1.49-3.362-.783.957-2.78 1.167-4.956.997 0 0 1.04-.655 3.542-1.706-.27.09-1.227.26-3.934-.377 1.79-.056 3.353-1.295 4.136-2.083-1.344.225-4.47.225-7.21-1.073 1.677.172 4.415-.225 5.92-.837-1.28.166-3.798-.173-6.312-1.583.556.188 1.225.258 1.936.258 2.36 0 5.236-.815 6.393-1.16m2.956 1.238c.21-.952.633-1.59.104-1.906.228-.193 1.786.21 1.367 1.59C69.48 78.092 68.53 80 68.53 80c-.314-.635-.314-2.016-.104-2.967M36.87 78.835c.324-.742.64-1.41.85-1.714.59-.846 2.125-1.775 3.105-1.857.98-.084 2.513-.706 3.935-1.24 1.43-.535 3.445-1.687 3.724-1.774.277-.086.392.283 0 1.126-.392.842-2.125 1.746-1.843 2.93.276 1.182 1.34 1.236 1.727 1.738.143.188.34.694.54 1.27-2.36-.638-5.438-.14-7.024 1.127-.818-.08-2.424-.164-5.013-1.605m38.77-3.316c-.11-.287-.782-2.143-.836-2.594-.055-.45.156-1.017.493-.68 0 0 .688 1.618 1.016 2.428.302.746.5.45.784.28.28-.166.388-.395.838-.166.44.225.167.446-.057.953-.222.51.17.847.783.847.612 0 .612.393 1.006 1.458.388 1.072.917 1.55.077 1.212-.13.264-.077.482.036 1.325-.45.112-1.404-.785-1.845-1.237-.45-.454-.838-.957-1.622-2.032-.058-.222.392-.167.446-.67.052-.504-.17-.96-.392-.733a.25.25 0 0 1-.177.076c-.214 0-.463-.252-.55-.467m-26.666-1.77c.838-.742 1.154-1.907 1.896-2.016.733-.102 1.362.637 1.362.637-.418.955-2.838 2.012-3.153 2.545-.067.108-.14.157-.214.157-.298 0-.57-.728.108-1.322m1.994 4.75c-.563-.903-.756-1.492-.363-2.28.392-.79 1.955-1.858 2.265-2.223.308-.368 1.95-2.505 1.95-2.505s6.096-.788 7.578-1.212c1.42-.404 4.698-1.453 6.01-2.135.59.772 1.877 2.228 1.877 2.228l-.528 1.168 4.186 2.03c.128.486.287.955.405 1.36-.065-.047-.125-.09-.18-.134a4.24 4.24 0 0 1-.447-.386c-.09-.088-.228-.264-.353-.306-.11-.043-.19.025-.293.06-.235.084-.476.15-.682.275a.084.084 0 0 1 .01.022c.066.392.397 1.004.78 1.448.394.455 1.598 1.77 1.732 3.38.11 1.317-.085 1.907 1.29 2.302 0 0-.564 1.02-1.843 2.256-1.29 1.24-3.356.342-3.746-.954-.392-1.302.783-5.404.39-7.77-.39-2.367-4.64-.396-5.645-.396-1.008 0-3.688-2.592-5.753-3.152.833.9.668 2.643.166 3.547.837.673.725.787.277 1.016-.442.22-3.24-.118-4.245-.344-2.74-.784-3.636-.732-3.017-.39.614.334 2.4 2.248 2.79 3.433-1.274-.146-2.465.483-3.78.746-.334-.397-.65-.788-.83-1.087m11.15-19.426l2.12 2.37s.113 1.065-.276 1.57c-.394.51-3.3.787-3.3.787 0-.277 1.455-4.726 1.455-4.726m-6.597 7.6c.396-.787.448-1.182.728-1.348.276-.62.115-.562.616-1.465.503-.902 1.34-4.785 1.226-5.572 0 0 2.15-.682 2.654-.627-.337 1.856-2.426 7.158-2.485 7.61.616 1.12 2.965 3.318 2.965 4.163-.054.566-1.062.454-2.125-.053-1.06-.508-1.288-1.412-1.397-1.578-.56-.173-.785.118-.785.118l-1.398-1.246zm-21.736 9.69c-.058-.734 1.79-2.423 1.953-7.043.08-2.182-.863-3.774-1.953-4.883.09-.24.17-.492.25-.77.73-2.79 1.145-5.378 3.158-6.423 2.014-1.04 3.575-.785 4.217-.62-.782 1.017-2.875 3.438-2.344 11.12.14 2.99-.028 3.945-1.314 4.96-1.286 1.01-1.595.898-1.928 1.63-.212.455-.42 1.92-.798 3.363-.642-.452-1.213-.952-1.242-1.333m2.065 1.065c-.334-.17-.06-1.86.17-2.25.22-.393 1.114-1.69 1.73-1.92.613-.222 2.29-2.19 2.35-3.486.052-1.297.724-6.417 1.058-7.66.337-1.238.504-5.682 7.602-5.972 0 0 .334 3.663.115 5.467-.228 1.802-2.408 5.065-3.413 5.855-1.004.787-2.904 1.915-2.904 2.42 0 .508 3.35.226 2.794.848-.562.614-3.3 1.125-4.81 1.855-1.506.734-3.017 2.365-3.463 3.264-.412.825-.814 1.598-1.14 1.598a.258.258 0 0 1-.09-.02m14.59-12.217c-.732-.172-.842-4.73.496-9.124 0 0 5.873.62 6.26.897.393.284-.054.85-.054 1.86 0 1.017-1.123 5.368-1.123 5.368-1.488.257-4.317 1.016-5.348 1.016a.85.85 0 0 1-.233-.017m28.986-6.694c-.395-.597.358-1.792 1.027-2.03.67-.235 1.737-.812 2.332-1.072.713-.32 1.302-.24 1.068.156-.238.397-1.54 1.952-2.216 2.55-.433.39-1.075.694-1.574.694-.27 0-.5-.09-.637-.3M52.76 53.832c-.632-.95 2.695-1.097 3.26-.74.84.527 1.678 1.167 2.837 2.963 0 0-5.47-1.27-6.098-2.222m-16.574-.95c3.298-.507 5.81 2.538 5.81 2.538s-.222.56-.446.723c0 0-2.012-.56-3.746-.276-2.84.462-4.357 4.053-4.75 6.477-.393 2.423-1.73 3.94-3.24 4.785.782-1.014 1.21-2.48 1.265-4.116.17-2.476 1.254-4.798 2.802-7.046 0 0-1.948 1.2-2.898 2.49 1.178-3.544 4.03-5.293 5.202-5.575m17.308-3.075c.84-.636 1.158 0 1.263.637 0 0-2.104 1.057-3.154 1.587-1.053.53-2.525.74-3.156-.21-.632-.953 1.785-1.697 2.624-1.377.23.086.447.123.66.123.588 0 1.148-.294 1.764-.76m-15.69-8.13c2.46-3.6 11.515.337 11.515.337-1.51.228-3.85 2.118-7.41 3.063.672.17 4.618-.64 5.505-.755-.278.227-.547.968-2.723 1.754 0 0 2.104.245 3.778-.72 1.828-1.054 1.63-.638 1.578-.074-1.902 4.054-7.435 1.973-9 1.293-1.563-.674-3.522-.56-4.974.395 0 0-.617-.338.502-1.353 1.114-1.012 6.037-1.8 8.61-3.095-2.295-.73-6.373.17-7.044.784 0 0-.617-.84-.338-1.63m24.376-4.632c.78-1.19 2.04-1.753 2.04-1.753s1.486-.32.316 1.167c-.633.74-1.4 3.92-1.474 5.08-.078 1.25.632 4.454-.104 5.94-.368.742-.772.958-1.175 1.26-1.225.81-1.8.647-2.288.647.24-1.98.893-2.917 1.523-3.348a.757.757 0 0 1 .362-.258s0-.633-.21-2.116c-.17-1.225.294-3.162 1.29-4.812-.687.593-1.313.91-2.15 1.328.482-1.39 1.183-2.407 1.87-3.136M51.58 38.366c-2.353-1.296-4.48-4.498-4.507-5.787.026-.72-.71-1.115-1.114-1.178 2.75-1.402 4.43.097 6.026 1.595 1.396 1.308 2.724 2.622 4.653 1.994-.873.627-2.278 1.033-3.828.257.216.703 3.31 1.85 4.306 1.217.037.546-.078 1.508-1.093 2.566-.252.258-.65.405-1.194.405-.78 0-1.86-.31-3.248-1.07M74.96 64.69c-2.06-.24-5.93-.24-8.02-2.708-2.097-2.468-3.993-5.013-4.075-5.97-.08-.96.197-2.193.274-2.432.082-.24.434-3.78.827-5.974.396-2.188.875-8.24 1.032-9.95.155-1.714 1.265-4.62 3.037-5.973 1.784-1.354 2.813-1.234 3.244-1.073.44.155 1.148.357 1.345.318.196-.047.436-.48 1.107 0 .674.47 2.255 1.313 2.487 2.108.073.268-.17.443-.485.563-.376.033-.786.114-.984.32.253 0 .506-.007.695-.005.11.02.217.04.314.06 0 .005 0 .02-.007.033-.08.123-.333.168-.124.376.186.19.75.775 1.11.205.268.194.612.37.788.957.23.795 2.254 2.707 2.254 2.707.313.2.75.598.432.797-.162.102-.426.072-.717.04-.293-.028-.61-.057-.866.042-.513.198-.63.397-1.183.198-.552-.198-2.257-.717-3.44-1.114-.778-.262-1.502-.258-2.08-1-.62-.936-.223-2.307.373-3.13-.575.333-.936.743-1.134 1.195-.004-.007-.004-.01-.004-.01v.018c-.578 1.312.19 2.99.976 4.266.18.376.375.71.567 1.008.75 1.152 2.134 5.534 2.33 7.37.197 1.824-.675 5.85-1.543 6.846-.004.016 0 .036-.004.05-1.52-.13-3.286-1.196-4.823-.633 1.608.73 3.46.648 4.94 1.694.176.798.48 1.755.646 2.5-.81.534-2.75.464-4.575.633 0 0 2.19.875 4.492 1.592.014.243.134.432.51.574.95.355 4.07.08 4.624-.04.556-.12 3.516-.558 4.15.356.632.917.99 1.512.513 1.553-.203.016-.458-.165-.76-.35-.416-.25-.906-.5-1.452-.25-.895.418-4.332 2.252-6.44 2.252-.117 0-.238-.002-.35-.02M54.802 43.47s3.046-3.185 2.927-6.49c.076-1.515 2.607-5.692 6.442-6.73 0 0-1.34.782-2.182 2.92-1.376.774-2.94 2.584-3.486 6.79-.417 3.696-2.315 3.154-2.315 3.154.983 1.23 1.888 2.234 2.97 2.048-.832.704-1.234 2.408-1.234 2.408-1.07-1.313-3.124-4.1-3.124-4.1m15.92 27.935l.504-1.012s-19.13-26.685-29.08-40.603c.095-.214.178-.486.247-.744l29.623 40.84.834.112s.166 1.634.445 2.642l-2.57-1.235zm-13.356-40.71c-.727-.677-1.284-2.755-1.398-3.548-.11-.786.88-1.074 1.23-1.125 2.013-.28 1.953.39 2.35.617.386.228-.727.455-1.063.455-.015 0-.03 0-.043.006-.18-.027-.44 0-.44 0s-.414-.344-.782-.34c-.342 0-.548.07-.548.07s-.384.33-.307.352c.274.27.437.342.753.393.19.03.668-.078.668-.078s.02.573.038.632c.017.062 0 .393-.063.393-.054 0-.29 0-.216.14.078.142.57.462.652.338.08-.117 0-1.01.02-1.186.01-.062.01-.137.02-.214.04.022.08.04.132.054.452.118.564 0 1.007 0 .448 0 .28 1.297-.333 2.593-.332.7-.58.965-.852.965-.232 0-.488-.204-.824-.517m-17.605-3.04c-.222-.453-.723-.282-.445-.954.276-.678-.055-1.183.276-1.296.338-.113.787-.507 1.234-.17.11.06.078.207.008.282-.174.177-.504.258-.344.337.22.117.503 0 .56.335.055.34-.224.625-.224.625s.838-.056.726.283c-.125.382-.56.62-.842.844a.587.587 0 0 1-.358.126c-.216 0-.45-.127-.59-.412m17.495-2.42c-.392-1.46.783-2.705.783-2.705.724-.336 1.112 2.253 1.453 3.1-.167-.226-1.34-.34-2.235-.396m-5.89-2.23c1.107 0 3.715-1.47 3.715-1.47s-.396.476-1.498 1.233c-.47.318-.934.414-1.323.414-.53 0-.896-.175-.896-.175m-15.07-1.428c-.665-.995-.475-1.158-.22-1.243.253-.082 3.46 4.777 3.46 4.777a2.542 2.542 0 0 0-.432.424 646.335 646.335 0 0 1-2.807-3.957m16.733-.364c.866-.24 2.45-1.435 3.16-1.712.712-.277 1.344-.197 2.53.717-1.586-.958-3.165.757-5.18 1.595-2.013.833-2.958-.762-2.958-.762s.934.238 1.764.238c.246 0 .48-.017.684-.075m3.7-2.258c-.495.127-.986.373-1.517.638-.933.42-3.724 1.51-5.804.396-.115.455.84 1.98 2.104 2.448-.377.022-.788.01-1.16.01-.53 0-.2.255.23.533.417.285 1.448.818 2.65.594.53.366 1.368.253 1.792.058.414-.196.836-.255.725 0-.115.247-1.064.954-1.262 1.604-.194.647-.385 3.012-.385 3.012-.395.533-.533 1.747-.533 1.747-.925-.258-1.623-.51-2.18-.425-.558.083-.59.308-.983.114-.388-.198-1.086-.816-2.095-.478-1 .34-1.98 1.265-2.428 1.578-.45.307-.926.592-1.206.307-.278-.28-.92-1.912-.92-1.912s-.366-1.606-1.285-1.522c-.922.085-.452-.737-.526-.953-.116-.32-.52-.265-.48-.49.058-.32-.308-.582-.308-.582.165-.376-.008-.665-.334-.703-.237-.028-.448-.002-.63.02 0 0-3.084-4.303-3.25-4.5-.164-.193-.422-.396-.58-.44-.153-.037-.397-.05-.592.06-.2.105-.29.227-.36.314-.237.306.18.904.353 1.09.09.098 3.263 4.715 3.263 4.715-.163.31-.303.507-.247.742.08.334.866 1.267 1.177 1.52.305.248.27 1.134.445 1.49.44.897 1.293 2.176 1.38 2.574.082.394-.15 1.116-.15 1.116s-3.02 2.282-2.15 3.658c.806-.17 2.035-.644 2.373-.196.338.45.228 1.41-.277 1.774-.502.367-4.167.818-4.64 2.448-.476 1.633.893 1.804.613 2.816-.277 1.02-2.706 1.35-2.122 2.987-1.118.954-1.48 1.938-1.255 2.39.22.45.67.2 1.307-.167.644-.365 5.172-1.27 7.295-.113 2.125 1.15 2.235 2.11 3.02 2.42.78.31 1.287.198 1.287.198-.112.705.84 1.406.84 1.406-.057.707-.14.928-.14.928s-3.496.314-4.917.96c-.98-.817-3.974-3.238-7.075-2.843-3.1.395-5.112 5.01-5.416 5.97-.263.812-.324 1.992-.972 3.674-.847-.392-1.835-.977-2.44-1.79-1.01-1.35-.166-2.534.562-2.87.72-.336.105.377.386.675.248.253.867 1.06 1.045 1.325 0 0 .342-.316.554-.943-.04-.966-.49-1.913-1.434-1.973-2.463.137-3.145 2.952-2.063 4.8.58 1.002 1.616 1.6 2.745 2.215-1.125 2.21-3.087 5.57-.315 10.845.194-1.264.533-4.81 1.844-6.08.73-.708 1.586-1.15 2.326-1.885 1.037 1.37.76 2.374.66 3.686-.106 1.58-1.84 3.607-2.234 5.407-.39 1.802.225 3.268 1.512 4.786.23.272.544.543.914.815-.698.878-1.105 1.104-.888 1.745.28.818.98 1.018 1.318 1.75.334.73.553 2.788.553 2.788-.25.422-.417 1.126.06 1.608.473.473 2.403.87 3.323.53.054-1.49-.558-1.97-.92-2.534-.36-.558-1.12-1.29-1.455-2.136-.302-.764-.013-2.02.128-2.552 1.517.696 3.216 1.22 4.403 1.312-.953 2.874.174 6.88 4.366 6.203 4.194-.67 3.903-4.342 3.005-5.693.62-.57 1.96-.508 2.24-.058.28.447.553 1.293.89 2.25 0 0-1.003 1.634-1.337 2.59-.337.958 1.226 1.237 1.226 1.856 0 .62-1.004.504-2.068.397-1.06-.114-1.28.562-1.563 1.24-.785-.057-1.846.842-1.736 1.795 3.912-2.36 9.583 1.116 9.836 1.414.12.134.09-.682.067-1.058-.93-1.264-3.405-1.384-4.977-2.12 1.158-.577 1.85-.272 3.264-.004l-.06-.008c.556.144 3.36.684 4.477 1.274.194-1.042-.467-2.196-.728-2.654-.292-.517-.638-.972-.734-1.353-.178-.378-.133-.767.103-1.386.632-.073 4.998 1.035 6.98 1.935.078-.524.14-1.08.026-1.514.457-.195 1-.308 1.48-.396.978 1.617 4.19 3.637 6.424 3.533-.654-.363-1.165-.896-1.445-1.632.945.46 2.022.68 3.07.94.494-.57.735-1.495.587-2.91.764.182 1.495.713 2.11 1.155 1.276-.922 3.506-3.208 4.287-7.827.317.054 1.12.2 1.567-.066-.285-.17-.725-.745-.936-1.044.65.138 1.914-.005 2.447-.24-.756-.3-1.717-1.174-2.29-1.865-.678-1.1-1.575-2.68-1.907-3.425-.5-1.127-1.12-1.073-1.622-.342 0 0-1.618-2.31-1.567-3.097.058-.79-.447-1.802-1.174-1.238a2.404 2.404 0 0 0-.373.6l-.24-1.833h-1.367l-1.27-2.07.537-.247c2.185.03 4.867-.562 6.464-1.348 1.59-.792 2.006-.957 2.006-.957s2.1-.764 2.55-.54c.44.225 2.84 2.673 2.84 3.27 0 .59-.245 1.01.255 1.49.504.477 1.287 1.436 1.177 2.42-.11.985-.698 1.666-.503 2.252.197.592 1.534 1.267 2.01 1.546.478.284.924.396.98-.503.056-.902-.117-1.688-.396-2.282-.277-.59-.695-1.15-.862-1.912-.167-.757-.112-2.507-.558-3.293-.448-.79-1.423-1.578-2.127-2.648-.7-1.07-1.007-1.83-1.226-2.31-.228-.476-.98-1.263-1.592-1.263-.62 0-1.876.14-2.35.11-.283-.058.08-.31.667-.59.59-.285 3.47-3.744 3.856-3.862.39-.106.757.347 1.09.768.335.42 1.957 2.053 1.987 2.136.026.086-.06.79.052 1.238.112.45.925.505 1.01.617.113.148.56 1.215.39 1.72-.167.51-.98 1.073-1.063 1.524-.082.45.617 1.97 2.153 2.337.502.082.557-.312.675-.987.104-.675-.507-2.787-.562-3.632-.058-.84.276-1.854-.226-2.475-.507-.617-3.664-3.804-3.992-4.842-.335-1.04-.564-2.114-1.514-1.917-.948.197-1.507 1.35-1.9 1.69-.388.338-1.48 1.13-1.926 1.103-.447-.033-.618-.4-.7-.792-.082-.393-.362-2.676-2.204-4.846-1.846-2.163-1.905-2.304-2.1-2.927-.2-.614-2.483-6.87-2.656-7.318.59.03 2.52.31 3.16.62.645.31 1.257.9 1.76 1.324.504.424 1.118.397 1.34.223.228-.167.06-.308.06-.308l-.783-.87s.723.25 1.287.815c.39.083.976-.142 1.028-.707.06-.56-.14-.87-.14-.87s.2-.708 0-1.184c-.192-.478-.975-.62-1.033-.792-.7-.983-3.13-4.443-3.13-4.443-.053-.93-.64-1.944-1.42-2.14.695.113 1.42.113 1.42.113-.473-.676-.528-2.085-1.898-2.227-.73-.072-1.177-.013-1.496.05-.28.052-.46.104-.627.065-.365-.082-1.984-1.718-2.436-1.69-.442.03.253.82-.026.846-.118.012-.517-.087-.948-.19-.615-.14-1.312-.28-1.454-.12-.254.285 1.12 1.244.61 1.408-.503.167-2.626-.08-3.796.48-.14-.368-.756-1.04-2.403-.393-1.65.645-2.347 1.293-2.347 1.293.11-.307-.064-1.27-.064-1.27.463-.97.398-1.828.372-2.897-.025-1.07-.673-3.095-1.148-3.6-.108-.286.196-.227.476-.508.278-.282.922-1.495.59-2.475-.234-.686-.414-.6-.78-.503-.153.037-.35.08-.595.05-.364-.036-1.01-.722-1.804-.722-.11 0-.225.012-.338.043"/></defs><clipPath id="q"><use xlink:href="#p" overflow="visible"/></clipPath><linearGradient id="r" gradientUnits="userSpaceOnUse" x1="-390.973" y1="697.803" x2="-389.57" y2="697.803" gradientTransform="translate(18728.174 -33324.148) scale(47.8378)"><stop offset="0" stop-color="#EA6A10"/><stop offset=".723" stop-color="#A01A16"/><stop offset=".808" stop-color="#AE1C19"/><stop offset=".964" stop-color="#D52121"/><stop offset="1" stop-color="#E02223"/></linearGradient><path clip-path="url(#q)" fill="url(#r)" d="M24.932 18.912h66.243v76.674H24.932z"/><defs><path id="s" d="M57.19 29.47c-.085.037.145.343.25.548.08.06.564.108.69.068.125-.042.55-.2.417-.358-.215-.263-.508-.34-.785-.34-.213 0-.416.042-.57.08"/></defs><clipPath id="t"><use xlink:href="#s" overflow="visible"/></clipPath><linearGradient id="u" gradientUnits="userSpaceOnUse" x1="-390.989" y1="697.638" x2="-389.575" y2="697.638" gradientTransform="translate(18710.393 -33311.05) scale(47.79)"><stop offset="0" stop-color="#EA6A10"/><stop offset=".723" stop-color="#A01A16"/><stop offset=".808" stop-color="#AE1C19"/><stop offset=".964" stop-color="#D52121"/><stop offset="1" stop-color="#E02223"/></linearGradient><path clip-path="url(#t)" fill="url(#u)" d="M57.104 29.387h1.573v.74h-1.573z"/></svg>