<svg xmlns="http://www.w3.org/2000/svg" width="422.818" height="129.328" viewBox="0 0 422.818 129.328"><g fill-rule="evenodd" clip-rule="evenodd"><path fill="#B61923" d="M0 0h108.874v102.468c0 11.054-7.077 18.85-20.795 18.85H75.272c-9.86 0-16.168 3.39-20.8 8.01-4.658-4.62-11.005-8.01-20.805-8.01h-12.8C7.135 121.32 0 113.522 0 102.47V0z"/><path fill="#1D1B1C" d="M23.754 92.463c.83-3.098 2.73-4.69 5.885-5.226 3.048-.51 6.393-2.21 10.068-3.91 1.552-1.14 1.75-.634.607 1.592l-1.745 2.02c-.926 1.028-1.133 2.113.147 3.153 1.757.858 2.484 1.69 2.23 2.416-1.92-.522-3.67-.262-5.166 1.14-1.08-.313-2.376-.17-4.184.72-.928-.522-1.958-.563-3.19-.198-.32-.768-1.203-.986-2.696-.727-.403-.478-1.07-.774-1.956-.982m21.12 0c-1.86-1.923-2.068-3.612.052-5.05 1.184-.838 2.932-2.747 5.1-5.645 1.444-.105 2.734-.396 4.183-.618 5.775-.723 11.25-1.95 15.638-4.377.825-.27 1.458-.105 1.813.52l3.402 4.476-.974.36 2.57 1.97c-.465.368-.147.61.42.82-.323.47-.102.932.367.873.2.63.663 1.564-.69.264-.813-.406-.918 0-.244 1.3l1.394 2.01c.1.934.472 1.7 1.184 2.36l1.142 2.336c0 .367.202.72.302 1.027.17.88.365 1.344 1.08 1.463-.714 1.372-1.637 2.677-3.192 3.493-3.035 1.66-5.472.987-5.21-3.04.166-2.168.563-3.994.62-6.196.878-3.452.04-5.215-2.935-5.42-1.555.045-2.74.045-3.623.667-.824.574-2.02.367-3.606-.564-3.102-2.326-5.428-3.56-6.984-3.56 1.508 1.706 1.928 3.397.725 5.114 1.235.57 1.203 1.125-.05 1.69-2.99.114-6.342-.51-9.85-1.5-1.14-.19-1.35 0-.57.634 2.57 1.03 3.97 2.578 3.97 4.75-1.647.052-3.047.137-3.807.32-.736.464-1.51.397-2.227-.477m29.27 16.68c-.887.45-1.085.968-.274 1.49.575.353.888.406.994.156 1.038-.214-.42-.776-.722-1.646m-27.004-2.278c-.562.403-.825.87-.52 1.495l1.148.972c.45-.397.365-1.032-.163-1.445-.258-.2-.426-.568-.465-1.02m-13.22-5.428c.833.363.833 1.136-.208 1.596-.753-.294-.71-.97.21-1.597M18.85 70.772c3.71 4.288 4.394 9.142 1.344 14.764-1.142 2.736-.978 4.495.517 5.318.414-.923.764-2.366.976-3.88.303-2.31 1.812-2.057 3.762-4.07 2.124-2.163 1.498-4.432 1.307-8.056-.365-7.727 1.22-12.23 3.494-14.76-5.78-1.605-9.277 2.683-11.402 10.683m3.67-64.048c-.676.108-.932.564-.833 1.326l4.587 6.52c.16.305.48.62.42.873-.358.875-.515 1.446.252 2.222l1.55 1.482c.147 1.09.372 1.98.72 2.29-.348.717.104 1.396.73 2.05.156.21.197.466.457.687l.263 2.215c-2.17 1.81-3.256 3.147-3.465 3.965-.095.467-.19.836.117 1.103l3.04-.32c.27.153.563.203.666.41.465 1.092-.146 2.775-1.807 2.997-3.767.935-6.486 2.224-5.416 4.744 1.4 1.81.67 3.407-1.71 4.85-.558.522-.816 1.187-.712 2.078-.668.554-1.185 1.426-1.663 2.418-.36 1.032-.36 1.497.374 1.387 5.264-1.753 10.416-2.474 14.082.575 1.81 1.502 1.516 2.275 4.332 2.43-.29 1.19 0 1.854 1.042 2.066l.16 1.335c-1.138.255-2.43.255-3.568.572-1.278.31-2.52.824-3.666.824-.984-.782-2.114-1.243-3.054-1.805-4.74-2.95-8.708-3.097-12.174.93-1.796 2.11-3.463 5.006-4.788 9.45-.274.773-.882 1.078-2.12.36-2.493-2.02-2.944-3.824-1.703-5.01 1.752-1.658 2.422-.67 1.482.205l.068.21c1.333 0 1.852.925 2.375 1.91 1.122-2.954.508-4.958-1.096-6.566l-.352-.047.14 2.533c-2.733-.564-4.218 1.55-4.432 3.51-.14 1.91.718 3.62 3.205 5.063 1.396.463 1.797 2.06.714 3.643-2.676 3.932-2.275 8.126.162 13.484l.304-.16c.524-5.877 1.75-8.87 3.71-9.445.638-.212 1.208-.612 1.71-1.274.57-.882.878-.774 1.294.146 1.09 2.477.98 4.838-.514 7.224-3.4 5.53-3.564 9.755 1.28 13.11l.165.402-1.3 1.67c-.404.67-.093 1.485 1.033 2.42.838.978 1.263 2.586 1.51 4.585-.422.636-.473 1.407-.215 2.274.727 1.038 2.484 1.607 4.96 1.348.253-.042.218-.26.218-.52.19-1.125-.583-1.945-1.396-3.344-2.436-2.176-2.947-4.234-2.183-6.245l.368-.575c1.91.662 4.335 1.443 6.563 1.76-.937 1.898-.833 4.285 0 5.674 1.543 2.684 3.19 3.928 6.343 3.67 4.185-.367 6.25-3.83 4.7-8.52 1.5-.826 2.478-.778 2.99.146-.035 2.114.874 1.45.925 3.515-2.47 2.172-3.4 4.023-.705 5.218 1.38 1.394.604 1.903-1.202 2.013-1.908-.46-3.295-.363-3.564 1.178-1.752.1-2.26 1.142-2.203 2.793.503-1.236 1.492-1.346 1.996-1.03.93-.057 1.917.204 2.74-.155.775-.364 1.655-.364 2.63.043.51 0 .876.212 1.123.627 1.255 1.295 1.1-.162 3.823 1.494.69.047 1.812 0 2.024 1.088l.258-.978c.207-.364.105-.774-.31-1.142-.882-1.035.517-1.09 2.95-.626 1.283.583 2.475.832 3.402.68 1.077-1.09 1.34-.4 1.545 1.024.767-2.113.26-3.253-1.85-3.355.348-1.138.502.584 1.285-.82.668-.317 1.332 0 2.02.684.143-1.04-.472-1.66-1.813-1.964-.3-.87-.99-.93-1.905-.058-3.938-1.033-4.337-3.403-2.124-3.886 1.2-.293 1.658.936 2.578 1.304.72.268 1.1.155 2.07.268 1.082.042 2.07.248 2.742.722l.762.258c.417-.318.836-.258 1.35.21.573.81 1.135.923 1.65.253 1.542-1.247 3.88-1.247 3.718-.462-.055 1.133.164 1.526.564 1.44.36.05.517.524.517 1.336-1.492-.05-2.518.205-2.518 1.3-1.41.4-1.343 1.396-.74 2.695-.142-2.5 1.974-.488 4.03-1.834l1.45-.146c.163.72.813 1.03 2.113.98.462-.192 1.19-.192 1.653-.3 2.535-.68 4.548-.534 6.028 1.54.316-.614.276-1.284-.143-1.915 1.757-1.172 3.668-.73 2.524 1.187 1.032-.513 2.078-3.153.718-3.09.576-1.553 2.9-.26 2.243.883.954-.522 1.115-1.3-.07-2.272-.153-.887-.865-1.146-2.173-.785-.718-1.233-1.644-1.277-2.883-.205-1.24.578-2.223.626-2.823-.198-.69-1.09-.54-1.596.393-1.25.474.16.693-.414 1.246-1.497.213-.45.627-.824.925-1.436 1.35-.22 2.422-1.395 3.822-3.767.98-.465 1.444-2.373 1.493-5.38.423.21.943.064 1.607-.35-.465-.052-.664-.212-.664-1.395h1.274c.516-.207.726-.415.67-.67 0-.217-.506-.155-.88-.727-.15-.717-.555-1.454-1.33-2.16l-1.24-2.02c-.88-2.79-1.902-4.398-3.212-3.363l-.353-.208c-.99-1.084-1.704-2.517-2.272-4.12.048-1.968-2.02-2.07-3.09-.206l-.308-1.555-.524.83-3.243-4.695c.353-.065.978-.423 1.327-.473 3.977-.293 7.958-1.493 12.042-3.784l2.878-.862c1.294-.507 1.704-.083 2.38.575l2.946 3.042c.562.63.562 1.19.244 1.8-.31.624.43 1.444 1.458 2.323.92 1.04 1.05 2.437.205 4.206-.463 1.13-.367 1.838.32 2.212l2.008 1.437c1.347 1.083 2.015.72 1.957-1.194-.092-.97-.425-1.903-.992-2.873-.652-1.202-1.127-2.33-1.18-3.516-.045-2.383-.36-3.624-1.34-4.432-1.14-1.104-2.12-2.332-2.9-3.662-.26-.79-.452-1.252-.87-1.453-.11-2.474-1.904-3.725-3.05-3.05-.98.21-1.898.312-2.926.154v-.57c1.274-.724 3.506-3.004 5.728-5.466.813-1.038 1.223-.623 2.062.208l3.193 3.35c-.1 1.65.157 2.734 1.284 2.636.79 1.344 1.14 2.62.43 3.197-.724.625-1.304 1.032-1.304 1.905.168 1.282 1.663 2.643 3.3 3.26.148.054.415-.05.526-.257.465-1.143.513-2.48.043-3.832l-.57-1.895c-.11-.783 0-1.395.047-1.957.162-1.514.222-2.338-1.374-3.47-2.018-2.06-3.73-4.184-5.118-6.4.048-2.945-2.472-3.715-4.078-.52l-3.105 2.175c-.77.51-1.282-.306-1.282-1.138-.302-3.866-2.94-6.963-5.843-9.976-1.532-4.69-3.65-8.616-4.43-12.22 2.94.31 5.162.867 6.04 1.75 1.293 1.392 2.943 2.122 3.352 1.15.154-.328-.774-.892-1.24-1.35.53 0 1.2.458 1.906 1.177 1.296 0 1.706-.976 1.347-2.312.15-1.082.112-1.923-.357-2.272l-1.078-.627c-1.82-1.968-3.316-3.918-4.55-6.092-.153-.25-.217-.46-.217-.673 0-.863-.25-1.642-1.125-2.422l.412-.203-.06-.303.933.2-.933-1.55c-.496-1.914-2.262-2.227-4.896-1.45-.36.09-.813-.305-1.29-.82-1.652-1.602-3.412-2.486-2.788-1.295.1.217.62.776.057.72l-2.846-.47c-.62-.092-.72.105-.57.42.518.565 1.04 1.1 1.252 1.69l-3.612.22c-.74.048-1.343.373-2.022.315-1.958-1.66-4.392-.417-6.92 1.492l-.348-.156-.06-2.936h.305l-.245-1.916h.198c.2-2.885-.37-4.76-1.455-6.04-.196-.874.682-.777.88-1.035.83-1.038.774-2.227.774-2.833-.152-1.246-.57-1.642-1.182-1.246h-.735c-.774-.102-1.385-.36-1.695-.712-.834-.566-1.6-.566-2.378-.066-3.706.932-4.375 3.818-8.927 1.868-.518-.056-.62.156-.405.566.764 1.025 1.852 1.71 3.04 2.217-.422.31-1.247.367-2.578.266.767 1.016 2.27 1.537 4.6 1.488.863.52 1.888.323 3.053-.15.606-.363.65-.167.25.67-1.206.984-2.028 2.89-2.175 6.348-.458.723-.727 1.485-.89 2.38-1.692-.474-3.196-.777-3.824-.262l-.667-.048c-1.478-1.14-2.938-1.08-4.122-.313l-2.622 2.02c-.985.676-1.81.72-1.967-.112l-1.09-2.328c.048-1.64-.55-2.422-1.69-2.523-.528-.45-.883-1.028-.993-1.643l-.773-.99c.255-.886-.106-1.186-.718-1.186-.663 0-1.283-.104-1.65-.36l-5.364-6.603z"/><path fill="#FFF" d="M97.007 83.165l.51-1.083c.262-.36.47-.36.62-.05l1.24 1.133c-.266.267-.825.267-1.24.373l.415.662-.414.2-.152.577c-.772-.622-1.23-1.185-.98-1.812m1.082-3.702c.155 0 .31.452.31.964 0 .507-.155.98-.31.98-.21 0-.31-.474-.31-.98 0-.512.1-.964.31-.964m-.728-4.192c.13-.115.362.106.52.364.208.3.26.617.15.662-.103.066-.353-.086-.513-.417-.21-.298-.253-.554-.157-.61M100.672 70.208c-.168-.152-.305-.105-.473.05-.556.677-.668 1.19-.354 1.657l1.14.878c.355.31.77.145.56-.156l-.41-.576c.25.12.458.37.705.37.224 0 .275-.3 0-.515-.4-.424-.5-.578-.246-.82.11-.105.11-.202-.05-.315l-.872-.572zm0-4.796c-.514-.617-.417-.985.257-.916-.61-.992.057-1.202.665-.166.303.465.363 1.386.247 2.478-.044.316-.4.397-.5 0-.205-.62-.413-1.034-.67-1.396m.405 4.076l.265-1.19c.045-.306.154-.246.32 0 .402.512.762 1.04.856 1.91.113.36.053.57-.205.62-.3.064-.557-.1-.817-.365-.36-.407-.46-.676-.42-.975M82.82 56.268c.043-2.158.288-3.908.288-5.518 0-.665.48-.665.48.095.1 1.725-.107 3.477-.317 5.264 0 .26-.45.727-.45.158m2.98 8.63c.113 0 .168.102.168.198 0 .105-.055.217-.168.217-.108 0-.143-.11-.143-.217 0-.096.034-.197.143-.197m-5.1-7.65l.196-.14c.056-.068.157-.068.22.044l.76.973c.058.062.058.16 0 .223l-.205.136c-.06.06-.153.06-.216-.044l-.81-.98c-.044-.068-.044-.153.057-.21m7.424 5.52l.303-2.005-.347.723c-.33 0-.364-.315-.408-.944-.068-.71 0-.976.408-.8l.255.64.2-.443c.372-.197.41 0 .263.604l-.1 2.228c-.21.314-.363.878-.574-.002m5.47-6.346c-.312-.407-.358-.93 0-1.273.318-.378.79-.436 1.143-.162.314.162.406.344.406.505l-.626.207.783.213c.422.352.054 1.03-.318.455-.31-.304-.667-.352-1.03-.15 0 .472-.103.57-.36.205m-7.482 3.615c.104-.044.31.145.463.412.106.256.154.51 0 .58-.113.098-.3-.126-.41-.373-.152-.274-.152-.557-.053-.618m-4.755-.41c.1-.062.316.113.48.366.146.302.146.548.04.61-.105.053-.308-.104-.462-.422-.154-.244-.154-.498-.058-.555m1.408-2.52c.346-.068.824.352.925.914.147.622-.1 1.14-.465 1.25-.403.05-.838-.317-.992-.925-.094-.63.113-1.143.533-1.24m.67 3.395c-.21-.972.097-1.133.458-.205.58 1.346.88 3.057.818 5.112 0 .776-.605.83-.676.095-.197-1.797-.247-3.493-.6-5.002m5.978 1.597c.05-.97.26-2 .637-2.985.133-.47.35-.51.604-.253.934-1.506.725-.675.312.46l.266.16c1.135-2.126.67-.425.563.515-.828 1.036-1.395 1.236-1.654.506l-.265 1.345c-.2.607-.352.733-.46.252M19.218 98.04c-.366 1.386-1.907.655-1.14-.57 1.92-3.1 3.768-6.19 4.127-10.374.113-1.502 1.04-2.177 2.217-2.85 2.533-1.376 3.41-3.76 3.353-6.44-.564-11.66 2.69-16.77 7.697-18.797l-.155.474c-4.495 2.726-6.344 7.993-6.396 15.164-.05 1.61-.203 3.252 0 5.012l.135-.352c.164-4.246.164-7.862.698-10.344.564-2.72 1.444-4.38 2.314-5.566.305-.405.573-.94.89-1.232.408-.416.865-.52 1.217-.886l-.043.366c-1.703 1.704-3.147 3.86-3.813 6.71-.71 3.25-.783 7.02-.527 10.952-.037.563-.15 1.03-.354 1.435l.204-.104c.31-.616.466-1.332.466-2.225-.352-4.76 0-9.54 1.703-12.908 1.19-2.31 1.9-3.19 5.216-5.053l-.11.362c-2.784 1.908-5.417 4.133-5.932 11.675l.154-.16c.505-5.72 2.573-9.965 6.396-11.514 1.36-.585 2.943-.46 4.7-.46l-.304.252c-2.685-.25-5.013.67-7.026 2.79l.314.105c1.904-1.958 4.133-3.05 6.93-2.424l-.218.41c-1.963-.316-3.624.42-5.174 1.598v.205c1.753-1.192 3.355-1.748 4.92-1.444.506.062.665.465.506 1.084l-.3 2.84c-.052 2.735-.207 5.42-.878 7.842l-.263.2.26-4.735-1.092 5.883c-.108.67-.56.562-.458-.044.258-1.264.66-2.952.93-4.76-.27.048-.472.22-.515.57-.32 2.528-.718 4.596-1.294 5.314.365-1.603.577-3.204.62-4.8l-.298.246-.794 4.505c.574.3-.156.776-.33.214l.24-2.496-.215-.06-1.076 3.99.357-2.727-.933 2.726h-.352l.457-2.318-1.543 4.233c-.465.1-.527-.063-.14-.78l.962-2.9-.308.055c-.618 2.13-1.084 3.626-1.85 4.09l-.264.04c1.073-1.904 1.227-2.834 1.286-3.768-.565 1.825-1.13 3.098-2.17 4.19-.15-.148.054-.616.674-1.744l.57-1.512c-.257-.305-.416-.21-.57.27-.364 1.28-.718 2.16-1.394 2.986l.676-2.533-.106-.307c-.47 1.495-1.085 2.773-1.962 3.563l.403.198c1.407-.92 3.313-.595 5.28-1.49.404-.21.816-.313 1.075-.115l-.363 1.01-.36-.594c-.205.785-.504 1.503-.925 1.814l-.16-1.126c-.82 1.778-1.387 2.793-1.436 1.906l.14-1.092c-.6.63-1.02 1.347-1.184 2.234-.302-.063-.357-.678-.26-1.557l-.506 1.908c-.466.093-.56-.414-.31-1.554-.42 1.038-.775 1.748-.928 1.865-.21-.313-.253-.827-.105-1.494l-.514.974c0 .73-.197.976-.515.93.17-1.072.17-1.495-.05-1.235l-.625 1.64c-.352.217-.465-.196-.407-1.126-.58.313-.42 1.445-.832 1.908-.31-.205-.36-.724-.31-1.296-.256.88-.514 1.396-.873 1.456l-.107-1.71c-.164.77-.365 1.39-.675 1.91l-.465-1.246-.21 1.2c-.353.19-.656-.106-.862-.88-.06 1.602-.215 2.938-1.237 3.61.085.41-.352 1.496-.986 2.743l1.656-2.442c.353-.1.507.108.353.886l-1.71 2.774c-.247.318-.558.224-.87 0-.353 1.396-.982 2.394-1.602 3.33.722-.48 1.204-1.463 1.76-2.81.095-.405.567.103.413.944l-.414.36.05.613-.504.04v.852l-.477.197c.473 1.138-.11 1.853-1.235 1.296M28.92 59.163l2.003-.357-.1.416M10.12 74.92c.27-.986.94-1.56 1.61-2.746.423-.683.566-.206.522.4-.885 1.3-1.562 1.968-2.133 2.345"/><path fill="#FFF" d="M31.246 58.223c-3.31-2.922-6.563-4.477-8.98-3.963-4.603 1.04-6.815 5.273-8.16 9.3.774-1.35 1.444-2.23 2.27-2.48-2.27 3.604-3.56 7.284-3.762 11.504-.154.52-.42.986-.83 1.35-1.445 1.072-1.346 1.946-1.595 2.84.296-.22.664-.894 1.13-1.446.61-.773 1.338-1.61 1.64-2.94.485-1.817.677-3.62 1.048-4.96.506-1.758 1.026-2.93 1.957-4.498 1.656-2.725 3.754-5.207 6.183-6.233v.192c-2.36 1.3-4.064 3.26-5.985 6.31-.462.77-.767 1.485-1.188 2.577-.402.985-.824 2.115-.91 3.41-.315 2.783-.987 4.594-1.768 5.665-.83 1.084-1.338 1.55-1.5 2.075-.103.25-.31.72-.253 1.234 1.814-3.4 2.625-3.097 3.41-5.52 1.08-3.71.35-7.54 5.316-12.95h.353c-2.377 2.733-3.978 5.313-4.784 10.837-.17.92-.325 2.214-.732 2.98-.63 1.203-1.913 2.13-2.282 3.305l.26-.037c.62-.615 1.87-2.064 2.318-3.058 1.516-2.886.993-6.757 2.91-9.853 2.474-4.07 4.376-6.19 7.425-7.374l.353-.06c-4.165 2.218-4.895 3.803-6.704 6.296-.62.836-1.077 1.654-1.597 3.19-.468 1.356-.785 3.422-1.025 5.02-.315 2.062-1.1 3.303-1.923 4.336-.463.56-.82.82-1.185 1.34-.3.467-.616 1.35-.772 1.97l.262-.106c1.13-3.048 1.805-2.383 2.62-3.412.466-.62 1.196-1.858 1.394-3.296.31-3 .938-5.27 1.958-7.238 1.092-2.162 2.807-4.532 4.71-6.132.878-.724 1.556-1.138 2.726-1.51h.267c-1.4.94-2.32 1.204-3.394 2.23-1.758 1.65-3.47 4.12-4.308 6.23-.875 2.033-1.33 4.244-1.58 6.51.04-.298.192.162.297-.09.93-5.37 2.834-9.147 5.254-11.564 1.358-1.397 2.963-2.424 4.458-2.81l.97-.036c-2.273.62-4.444 1.7-6.088 4.236l.305-.048c2.017-2.174 4.028-3.15 6-3.618l.302.05c-1.342.464-2.588.98-3.357 1.71l.09.308c1.5-.987 3.8-1.51 6.47-1.773M10.59 80.787c-.252-.416-.356-.872-.356-1.29.048-.608.507-.56.62-.155.104.783-.263.836-.263 1.445M16.578 86.314l.52-.563c.253-.157.564-.2.782-.102-.063.256-.633.52-1.302.666M16.125 87.913l.666-.714c.367-.26.765-.323 1.088-.162-.105.318-.84.68-1.753.875M16.162 88.737l.78-.663c.37-.204.832-.247 1.14-.058-.102.257-.986.57-1.92.72M16.367 89.462l.732-.61c.358-.215.78-.215 1.077-.055-.17.294-.93.568-1.81.665M16.73 90.25l.468-.533c.26-.155.576-.198.783-.094-.06.205-.623.47-1.25.626M19.358 81.99l.428-.27c.213-.105.455-.05.558.047-.05.165-.497.222-.986.222M18.688 82.87l.894-.424c.417-.048.81 0 1.022.238-.212.275-.983.328-1.916.186M19.218 80.742l.656-.524c.315-.17.685-.17.95 0-.155.267-.825.42-1.606.524M19.717 79.496l.675-.154c.32 0 .63.154.74.364-.155.164-.79.046-1.415-.21M18.28 93.4l.466-.275c.21-.045.472 0 .573.06-.05.152-.512.26-1.04.214M19.717 91.784l-1.133.163c-.467.2-.81.61-.867.992.36.07 1.185-.43 2-1.156M19.218 91.28h-.88c-.417.1-.708.346-.787.66.267.113.99-.206 1.668-.66M23.245 95.51l.506-1.08c.262-.368.722-.585 1.13-.585 0 .365-.713 1.088-1.635 1.666M25.555 94.43l.93-.368c.47 0 .88.148 1.09.415h-.053c-.05.316-.663.88-1.455 1.292l.483-.886c.104-.09.208-.197.357-.307h-.31c-.203.26-.62.574-1.083.877l.352-.725c.054-.113.162-.153.202-.212-.15-.04-.303-.04-.513-.09M30.053 94.577c.313-.148 1.395.11 1.238.47-.044.31-.712.87-1.46 1.386l.423-.922c.113-.154.212-.204.325-.315h-.375c-.21.26-.563.574-1.034.867l.317-.756c.053-.06.154-.11.217-.154-.097 0-.217-.063-.282-.063-.146.216-.448.42-.774.61l.225-.506c.35-.48.613-.4 1.18-.617M36.717 94.43c0-.89.663-1.407 1.956-1.555 1.504-.204 3.29.092 2.798.776h-.156l-.268.62-.57 1.035.37-1.134.16-.572c-.16-.06-.43-.153-.69-.2l-.45.446-.788.885.63-1.026.257-.413c-.1 0-.215-.068-.3-.068l-.474.482-.77.873.608-.98.263-.412h-.398l-.32.466-.727.927.514-1.098.144-.26c-.2.07-.406.116-.562.18l-.367.87.19-.825c-.486.206-.9.472-1.048.984M31.858 95.15V95.05h.104l1.297-.84c.872-.405 1.957-.558 1.797.16 0 .06-.1.15-.306.208 0 .263.047.574.047.877l-.354-.768h-.213c0 .402 0 .824.058 1.23l-.53-1.124c-.09.048-.138.048-.26.048.08.553.08 1.182.08 1.79l-.738-1.48v-.103c-.1.308-.16.65-.27.974l-.142-1.033c-.155.403-.357.93-.51 1.443l-.06-1.077v-.267.065z"/><path fill="#FFF" d="M17.1 60.23c.722-.697 1.484-1.478 2.22-2.206-.89.372-1.657 1.092-2.22 2.207M29.276 100.614c-.22-.514-.458-.98 0-2.165.426-1.08.933-1.39 1.232-1.34.372.413-.102 1.244.123 2.273l-.84-.73.258 1.39-.613-.66-.16 1.23zM36.606 101.958c-.105-.21-.26-.305-.305-.305-.113.053 0 .25.11.448.16.22.307.317.344.317.048-.042 0-.258-.148-.46M36.606 102.89c-.197-.314-.42-.472-.504-.422-.118.06 0 .32.2.626.2.305.415.466.5.403.062-.035 0-.285-.196-.608M36.14 103.772c-.156-.275-.298-.413-.352-.413-.098.038-.066.3.054.564.142.21.3.407.352.354.107 0 .05-.256-.053-.506M35.688 104.642c-.12-.42-.364-.717-.472-.68-.1.06-.1.412.06.827.097.373.292.676.412.676.154-.047.154-.422 0-.824M29.64 104.28c.31.052.507.16.507.252-.042.057-.316.11-.548.057-.277-.058-.544-.15-.467-.216 0-.095.25-.152.507-.095M29.384 103.622c.37.037.61.192.61.303 0 .098-.296.154-.67.098-.354-.098-.61-.208-.61-.316-.002-.085.31-.147.67-.085M29.22 102.79c.424.1.73.246.73.353-.053.16-.412.216-.817.097-.42-.028-.78-.204-.727-.352 0-.1.355-.146.813-.1M42.66 94.01c-.322-1.043.81-1.392 2-.885.93.354 2.077.52 3.557.212.745-.15 1.51-.15 2.276-.046.78.414.73.772-.147.92-1.65 1.55-2.904 3.16-3.108 4.7-.565-.773.62-2.73 2.49-5.166-1.144.873-2.173 2.016-3.15 3.315.192-.838.865-1.972 1.81-3.216-2.023 1.51-3.41 3.73-3.218 7.86-.774-2.48-.242-4.864 1.35-7.187L44.3 96.84l2.012-3.096-1.233.428.088-.468-.774.357v-.52l-1.03.83.206-.89c-.345-.19-.613.12-.91.53M43.57 99.847c-.102.612-.058 1.34.47 2.056.14.163.364-.04.253-.407-.36-.308-.557-.934-.723-1.65"/><path fill="#FFF" d="M46.154 100.148c.12 0 .21.254.21.624 0 .364-.09.667-.21.667-.098 0-.205-.304-.205-.668 0-.37.106-.624.204-.624M48.517 97.523c.066.05.066.314-.035.557-.15.31-.315.517-.42.473-.086 0-.06-.308.068-.576.148-.31.306-.507.387-.454M49.094 96.286c.108.1 0 .313-.133.514-.167.26-.377.403-.443.364-.035-.05 0-.323.177-.52.15-.258.348-.358.4-.358M68.464 98.285c.875.312.972 1.562.507 3.057.053-1.24-.153-2.22-.506-3.057M63.967 104.642c-.063-.268-.16-.508-.302-.764.047.29.094.602.143.91l.16-.146zM53.84 89.054c.113 0 .268 0 .41.045l.436.687c-.167 0-.323-.07-.478-.116l-.367-.616zM53.02 93.54c.114.06.262.305.295.574.086.256 0 .404-.078.36-.104-.046-.267-.265-.316-.516-.055-.254.002-.418.1-.418M53.795 93.48c.046-.035.21.17.257.437.106.255.156.453.106.512-.106 0-.206-.16-.318-.42-.082-.306-.15-.53-.045-.53M54.718 93.337c.11 0 .32.314.373.672.05.317.103.467-.157.467-.215.042-.16-.106-.215-.468-.03-.306-.03-.673 0-.673M55.61 93.01c.043 0 .246.28.414.694.092.357.15.725.04.725-.092.045-.25-.22-.41-.626-.095-.405-.148-.73-.044-.793M56.526 93.01c.155-.043.323.327.415.734.113.466.064.833-.043.873-.11 0-.327-.348-.37-.772-.106-.446-.106-.834 0-.834M57.576 93.186c.096-.06.4.46.45.876.108.413.163.61-.152.652-.36.066-.245-.137-.36-.59-.057-.42-.057-.938.062-.938M58.237 92.967c.144-.047.316.324.47.777.1.466.1.873 0 .873-.098.07-.326-.29-.42-.772-.098-.446-.153-.878-.05-.878M59.328 92.72c.092 0 .263.466.263 1.022 0 .586-.12 1.04-.262 1.04-.112 0-.26-.454-.26-1.04 0-.556.086-1.02.26-1.02M60.204 93.01c.085 0 .202.436.202.907 0 .512-.117.863-.202.863-.16 0-.218-.352-.218-.863 0-.472.06-.906.218-.906M61.074 92.756c.1 0 .22.466.22 1.048 0 .566-.12 1.033-.22 1.033-.106 0-.198-.467-.198-1.033 0-.582.092-1.048.198-1.048M62.01 92.51c.155.05.205.513.155 1.194-.105.565-.222 1.076-.376 1.076-.093 0-.15-.51-.093-1.13.073-.628.153-1.14.312-1.14M63.244 92.463c.164 0 .164.504.048 1.136-.1.61-.254 1.072-.4 1.072-.114 0-.163-.5-.063-1.132.11-.62.296-1.077.414-1.077M64.222 91.884c.16 0 .417.787.318 1.52-.157.77-.362 1.377-.535 1.31-.15-.04-.04-.65.07-1.376.103-.78.048-1.517.147-1.454M58.96 97.726c.058-.06.145.163.256.354.112.274.112.517.112.517-.05.06-.223-.147-.266-.354-.102-.266-.147-.517-.102-.517M59.68 97.47c.097 0 .257.256.365.56.1.325.1.48-.048.523-.22.103-.162-.104-.258-.416-.12-.255-.12-.614-.06-.667M66.633 95.306v.354c.175-.113.327-.206.48-.305.114-.927.114-1.815.054-2.532-.16.92-.306 1.754-.534 2.483"/><path fill="#FFF" d="M66.13 96.433c-.252 1.347-.308 1.752-.823 2.223.202-.817.105-1.452.105-1.596-.16.055-.262.104-.373.104v.15c.068.523.068 1.188-.563 2.01-.046-.728.278-1.4.278-2.12-.156.06-.278.11-.422.165v.717c-.057.303-.368 1.08-.435 1.142.067 0 .28-1.504.106-1.818-.106.06-.247.06-.34.112v.202c-.053.163-.053.304-.176.304-.037 0-.085-.105-.085-.25-.055-.054-.055-.162-.112-.205-.047 0-.165 0-.253.043v.05c.058.17.058.257 0 .31-.05 0-.145-.14-.26-.31-.117 0-.203.06-.258.06.054.25.054.36-.15.458-.263.1-.263-.155-.316-.405-.143.06-.286.06-.46.11.043.198 0 .354-.043.354-.06.043-.17-.105-.26-.318h-.416c.058.213.058.318 0 .36-.048 0-.154-.1-.257-.308l-.056.053c0-.052 0-.052.057-.052-.056-.053-.056-.14-.114-.25-.146-.315-.216-.612-.146-.667.096-.055.26.145.404.516.065.092.114.264.114.35.092-.035.247-.086.36-.086 0-.112 0-.172-.063-.22-.098-.415-.098-.777 0-.818.12-.05.263.26.38.67 0 .054.042.147.042.256.175-.06.268-.108.415-.15-.066-.26-.066-.372-.066-.516 0-.22 0-.31.067-.31.046-.058.3.31.413.72.1-.06.154-.06.24-.1-.035-.056-.035-.056-.035-.107-.106-.31-.106-.422-.106-.633-.047-.154-.047-.197 0-.254.054-.037.308.373.418.738 0 .05 0 .09.05.148.107-.06.137-.06.255-.1v-.824c0-.217.048-.318.105-.318.055 0 .104.102.14.265.072.19.124.463.176.718.094 0 .19-.05.302-.11v-.418c.04-.137.04-.253.108-.253.048-.042.147.253.203.526.154-.057.255-.12.396-.15v-.577c0-.148.083-.322.127-.322.04-.038.097.062.097.228.04.147.092.297.092.507.118-.057.213-.057.317-.146 0-.318.057-.627.057-.833.05-.207.098-.365.146-.365.066-.04.116.063.116.267.04.19.04.464.04.767.112-.05.213-.102.318-.102.357-1.444.825-3.396.825-5.166-.102-.206-.21-.36-.312-.558-.104 1.957-.255 3.618-.872 4.69.308-1.585.358-3.304-.05-5.272h-.161c.05 2.104.05 3.873-.516 5.063.21-1.7.143-3.5-.514-5.52-.105-.066-.205-.103-.31-.103.46.404.358 2.06.148 2.33-.323-.99-.044-1.29-.93-1.97h-.254c.452.507.523 1.29.415 1.91-.26-.572-.674-1.23-1.08-1.642h-.46c.662.754.662.923.56 1.526-.252-.662-1.3-1.116-1.71-1.44-.2 0-.258.06-.475.06.54.265 1.264 1.183 1.004 1.495-.36-.397-1.15-.827-1.458-1.403-.216 0-.096.105-.297.105.08.317 0 .52.054.9-.485-.11-.743-.175-1.305-.78-.097 0-.31-.054-.31 0 .05.14.26.506.31.67-.097-.164-1.18-.724-1.282-.896-.063-.04.21-.04-.422-.092.05.16.423.986.473 1.134-.112-.147-.877-.973-.99-1.082-.25-.052-.454-.052-.728-.113l-.45-.772c2.328.16 4.892.06 8.007-.51l2.884-.562c.976-.31 1.642.2 1.856 1.69l.154 1.662c.624.877.872 1.958.266 3.458.247 1.09.866 2.004 1.794 2.78.825.772.926 1.863-.04 3.415-.888 2.27-2.122 3.652-3.21 5.16 0 .052-.1.09-.1.16-.05.03-.105.094-.157.205.05-.11.105-.174.155-.274-.05-.235-.104-.502-.156-.75.155.197.21.35.257.558.154-.257.32-.512.474-.772-.066-.274-.112-.53-.153-.84.087.206.195.36.308.565.106-.204.25-.402.364-.612-.115-.265-.173-.554-.26-.872.145.214.26.402.354.608.15-.242.318-.508.417-.77-.048-.254-.157-.51-.222-.76.124.14.223.29.32.506.155-.46.264-.822.32-1.128l-5.327 3.303c.473-.41.986-.787 1.447-1.186l-.04.033c-.066-.29-.12-.67-.167-.955.168.25.24.56.368.81.097-.097.24-.207.35-.307-.042-.412-.11-.826-.16-1.24.213.368.317.737.422 1.022.163-.1.31-.257.465-.354-.056-.507-.1-1.078-.212-1.648.267.463.415.923.514 1.394.16-.147.268-.253.42-.353-.047-.733-.153-1.564-.26-2.336.367.732.62 1.4.62 1.96.113-.095.208-.145.31-.258-.043-.766-.156-1.7-.31-2.52.41.766.673 1.55.726 2.156 0-.044.102-.1.15-.146 0-.827-.15-1.967-.307-3.003.524.993.77 1.914.672 2.582.1-.083.21-.206.318-.306-.055-1.5-.574-2.83-1.042-4.234-.206.73-.206.98-.403.937.095-.818.042-1.19-.112-1.297-.1 1.13-.36 1.85-.718 2.212l.206-1.853h-.315z"/><path fill="#FFF" d="M61.49 99.692c0 .304 0 .57-.197.57-.22-.062-.168-.327-.12-.57h.318zM62.06 99.12c.096.048.16.145.16.504 0 .372 0 .63-.273.63-.31-.053-.25-.354-.158-.672.122-.353.157-.46.27-.46M62.778 99.23c0 .56 0 .972-.203.92-.203-.05-.203-.457-.1-.92h.303zM62.66 98.51c.077 0 .077.087.118.248h-.258c.054-.16.106-.247.14-.247M63.407 98.39c.085 0 .154.207.154.684 0 .467 0 .862-.374.826-.357-.053-.247-.474-.147-.926.146-.42.204-.584.367-.584M59.842 83.594c1.273.3 2.632 1.384 3.966 2.517.198.36.097.466-.195.314-.952-.314-2.274-1.866-3.77-2.83M64.8 86.94c.247.155.35.31.304.36-.057.113-.265.056-.514-.102-.207-.16-.368-.37-.313-.422.05-.048.264 0 .523.164M51.787 88.85c.456.05.94.092 1.387.152l.313.517-.04-.058c-.165 0 .452 1.652-.37-.097-.106-.208-.42-.172-.668-.274-.266-.088-.167-.15-.623-.24M45.323 111.143c.274 0 .523.12.523.22 0 .047-.157.146-.41.146-.31 0-.51-.043-.51-.148-.053-.1.153-.22.397-.22M46.01 112.43c.406-.097.876-.146.924-.05.097.11-.198.265-.622.418-.404.112-.82.112-.928 0-.06-.113.213-.267.625-.37M46.417 112.86c.467-.127.928-.176 1.025-.063.063.112-.26.303-.705.41-.54.168-.942.168-1.047.046-.1-.088.218-.3.727-.393M47.032 113.304c.313-.096.63-.096.677 0 .056.072-.156.218-.473.312-.353.056-.66.056-.72-.043-.054-.052.22-.197.515-.27M47.44 113.728c.325 0 .535.1.535.204.028.1-.172.16-.422.16-.262 0-.522-.06-.522-.16.002-.105.147-.204.41-.204M52.97 111.662c.436-.153.83-.153.872.05.112.158-.196.472-.61.62-.416.157-.825.157-.867-.048-.072-.156.184-.414.606-.622M52.243 111.192c.31-.153.622-.153.684 0 .044.17-.166.377-.47.47-.308.156-.62.088-.67 0-.115-.153.154-.372.456-.47M51.582 110.27c.256-.1.455-.055.51 0 .052.155-.114.307-.356.362-.265.107-.465.107-.52 0-.044-.11.108-.257.366-.362M44.097 105.98c-.057-.25-.318-.25-.42-.044-.054.347.054.828.42 1.038.4.203.504-.21.295-.367-.203-.216-.237-.363-.295-.628M43.365 105.628c.048-.31-.198-.465-.408-.21-.252.363-.358.935-.04 1.285.35.475.653.052.55-.205-.153-.367-.2-.56-.102-.87M79.414 82.44c-.318.466-.43 2.226 1.124 4.337.578.726-.106 1.25.716 1.344.313-.046.516-.293.583-.764l-.52-.26h.713l-.776-.522c.255-.055.882.104.84-.152-.064-.313-.778-.374-1.142-.51l.884-.217c.04-.263-.48-.46-1.3-.72l.818-.205-.923-.576.74-.198-1.137-.565.61-.306-.674-.22.63-.304c-.52-.202-.73-.668-1.186-.16M78.16 83.792c-.31-.667-.363-1.246-.2-1.746.348-.95.717-1.19 1.023-1.19.627.663-.417 1.076-.608 1.586-.16.104-.216.464-.216 1.35M77.903 80.582c.256-.244.564-.396.666-.305.107.113-.047.36-.308.656-.26.274-.56.482-.68.387-.093-.112.07-.414.32-.738M77.645 83.893c.152 0 .315.147.315.353 0 .154-.164.313-.315.313-.2 0-.36-.16-.36-.314 0-.206.16-.353.36-.353M78.31 84.92c.213.058.257.316.1.57-.1.262-.302.423-.45.302-.21-.04-.256-.3-.11-.556.11-.258.31-.41.46-.317M79.046 86.01c.25.1.303.365.097.67-.16.26-.517.416-.768.358-.267-.098-.323-.408-.16-.663.16-.265.51-.47.83-.365M79.826 87.2c.148.214.044.416-.216.517-.196.11-.514.053-.662-.155-.1-.147-.053-.362.194-.466.272-.12.518-.058.684.103M83.53 87.827c.09-.172.09-.423-.153-.47-.263-.057-.417-.057-.558-.32-.22-.614.085-.927.612-1.08.403 0 .568.153.46.418l-.272.2c.48.144.786.302.933.564-.255 0-.407.06-.454.264.874-.167.824 1.232.045.98-.526-.158-.77.047-.526.914.214 1.05.932 1.302.893.22-.108-.517 1.65-.62 1.848.514l-.665-.246c.16.814.833.463.935 1.166l-.587.065c.686.47 1.195 1.035 1.458 1.703-.716-.095-.77-.9-1.457-.9.886 1.19 1.923.936 2.444 2.147-.73-.05-1.605-.63-2.575-1.563.872 1.247 1.45 2.282 1.245 2.79-1.3-.577-1.563-2.474-2.084-3.046 0 .977.726 1.556.47 2.645-.514-.62-.763-1.607-.763-3.167.505.1.714-.247.714-1.13-.113-.935-.57-.873-.466 0 0 .664-.477.883-1.854.044-.216.216.094.478.856.947l-.032.77.405-.667.147 2.154c-.04.583-.186.466-.36-.093l-.16-1.092c0 .778-.085 1.146-.334 1.093l-.22-2.024-.575.73-.142-1.14-.532.41V90.25c-.354.197-.776.05-1.177-.58.556.15.927.047 1.392-.208-.25-1.03.208-1.55 1.087-1.635M71.24 94.124c.065-.473.16-.645-.3-1.254-.203-.2-.364-.252-.31 0 .107.42.507.834.61 1.254M70.42 90.952c.674.36.98.427 1.344 1.402.1.366.058.612-.205.316-.423-.464-.62-1.243-1.14-1.718M70.53 88.94c.87.62 1.233.73 1.644 2.184.092.568-.05.865-.352.402-.516-.717-.677-1.81-1.29-2.585M70.94 87.503c.978.324 1.697 1.5 1.697 2.52 0 .577-.26.93-.406.424-.217-.73-.57-2.22-1.29-2.944M71.356 86.728c.875.368 1.435.99 1.748 1.91.06.52 0 .774-.367.364-.204-.775-.724-1.546-1.38-2.274M77.445 112.29c.2-.54.965-1.028 1.904-.628.407.088.37.63.37.982-.27-.264-.524-.58-.77-.264-.734-.562-.99-.266-1.505-.09M74.642 112.49c.22 0 .375.1.375.31 0 .152-.154.26-.375.26-.15 0-.3-.107-.3-.26 0-.21.15-.31.3-.31M72.85 112.49c.097-.062.25.154.358.42.05.255.05.502-.044.502-.106.067-.26-.108-.377-.4-.05-.27-.05-.523.064-.523M73.46 112.38c.056 0 .148.11.206.305.057.176.057.327-.058.375-.038 0-.147-.107-.198-.316-.035-.143-.035-.315.05-.363M73.61 105.73c-.03.05-.093.104-.093.153-.212.207-.416.36-.458.247-.112-.04-.064-.297.105-.503.094-.096.14-.162.21-.21-.07-.044-.07-.1-.116-.146-.05.048-.05.104-.095.148-.217.255-.47.415-.576.312-.107-.057-.056-.356.148-.617.05-.104.167-.16.21-.205-.043-.068-.043-.11-.103-.11-.207.254-.468.365-.574.315-.103-.104-.04-.365.167-.634 0-.05.046-.106.097-.106-.097-.095-.097-.152-.157-.207-.146.112-.247.165-.366.112-.03-.06 0-.258.157-.466-.113-.186-.156-.416 0-.512.316-.267.47.096.78.776.112.253 0 .4.155.563.107.2.416.313.508.473.38.56.324 1.018.26 1.067-.086.064-.05-.05-.26-.45"/><path fill="#FFF" d="M73.61 106.244c.174.108.057.404-.2.73-.246.295-.506.458-.623.345-.15-.1-.05-.41.16-.713.26-.324.57-.476.662-.363M79.974 103.212c.06 0 0 .296-.104.603-.113.32-.31.518-.422.465-.034 0 0-.306.11-.62.157-.3.312-.516.416-.448M79.195 102.89c.096.038.046.47-.15.925-.27.407-.522.785-.675.73-.154-.065-.108-.466.153-.916.2-.486.523-.782.672-.74M77.383 102.16c.105.05.062.368-.1.768-.158.375-.356.632-.466.57-.102-.036-.063-.355.11-.71.145-.42.357-.686.456-.63M27.32 14.93c.162-.726.614-1.083 1.127-1.148l1.152.206c.393.308.35.42-.114.48-.912-.172-1.446.044-1.71.665-.367.516-.515.566-.455-.202M30.923 17.094c.103 0 .274.097.274.306 0 .15-.17.304-.274.304-.147 0-.253-.154-.253-.304 0-.21.106-.306.253-.306"/><path fill="#FFF" d="M27.162 16.063c-.36.465-.255.995.36 1.602l.828 1.028c.714.514 1.085.415.972-.366-.104-.508.062-.718.508-.718.316-.06.53-.21.677-.47.123-.393.062-.612-.3-.704-.673.454-1.235.66-1.708.756.627-.41 1.105-.712 1.258-.96.14-.168.347-.228.648-.125 0-.242-.09-.495-.456-.614-.73 0-1.45.51-2.12 1.254.42-.882 1.04-1.4 1.96-1.4.04-.267 0-.472-.256-.664-.562-.076-1.126.095-1.6.45l-.772.93zM31.342 22.47c1.704 1.65 3.137 3.6 4.295 5.825v1.907l-.645-2.167c.064 1.494 0 2.484-.13 2.167l-.533-3.084-.365 1.33-.296-1.912c-.255-.198-.303.986-.255 2.64-.457-.464-.414-1.81-.368-3.3l-.518 1.447c-.312-.788-.156-1.824 0-2.8-.312-.256-.508.267-.613 1.815-.367-1.036-.274-1.865-.108-2.85l-.36.78-.108-1.797zM43.99 7.89c.57.43 1.333.534 2.12.534l.043.413c1.24 0 2.536-.583 3.822-1.44-.054-.052-.32-.107-.568 0-.926.46-.825.16.93-.727.258-.154.48.056.877-.106l1.148-.253c-.937.833-1.872 1.65-2.896 2.426-1.464.81-2.73 1.032-3.92.62-.674-.32-1.358-.733-1.977-1.187-.157-.28-.302-.42.42-.28M51.125 8.168c.147 0 .245.086.245.222 0 .092-.098.188-.245.188-.112 0-.22-.096-.22-.188 0-.136.108-.222.22-.222M52.657 11.275c.104-.173.208-.223.314-.112.106.055.106.197 0 .303-.105.162-.243.21-.313.162-.103-.058-.103-.21 0-.353M56.328 9.86c.157-.03.303-.03.353.056.07.095 0 .304-.194.362-.157.104-.31.104-.37-.058-.097-.095 0-.25.212-.36M55.506 9.308c.147-.11.31-.16.343-.068.122.068.06.28-.035.373-.162.094-.31.154-.37.057-.047-.058-.047-.22.06-.362M49.864 10.38c.175-.05.32 0 .37.105 0 .113-.095.25-.248.25-.17.065-.33 0-.374-.09 0-.11.116-.207.252-.264M51.9 14.204c.19-.11.464-.11.506 0 .05.092-.042.263-.315.366-.19.037-.464.037-.508-.058-.058-.092.044-.25.318-.308M45.28 10.698c.565-.053 1.336-.26 2.38-.727l1.184-.567c.564-.256.667-.206.197.266-.523.5-1.183.77-1.65 1.13-.456.3-1.116.707-2.266.417-.563-.165-.363-.49.155-.52"/><path fill="#FFF" d="M48.894 10.17c.668-.625 1.092-.767 2.013-1.168.88-.38 1.75-.475 2.632-.475.62-.568 1.178.208.513.827-.21.19-.472.315-.73.477-.666.507-1.38.705-2.106.904-.93.274-1.032.167-.26-.353.26-.21.472-.37.72-.52.567-.34 1.19-.457 1.77-.506-.897-.58-2.593.315-4.294 1.13-.53.25-.67.114-.26-.313"/><path fill="#FFF" d="M53.54 7.502c.36-.105.67-.058 1.086-.058.668.2.984.583 1.027 1.037-.147.457-.36.71-.677.827-.147-.826-.457-1.28-.924-1.453-.21-.058-.294-.058-.514-.058v-.294zM52.76 7.703c.21-.108.26-.147.47-.2v.294c-.21.058-.21.058-.414.092-.21.07-.41-.093-.055-.187M51.837 7.17c.465-.395.98-.757 1.605-.817.61-.043 1.276-.043 1.956.06 1.283.466.776.876-.062.567-.507-.32-1.127-.255-1.85 0-.043.523-.932.12-1.45.465-.36.15-.41.057-.2-.274M55.61 7.344c.414 0 .718.053.773.405.038.455-.055.828-.36 1.025.15-.978-.312-.874-.413-1.43M56.75 7.1c.094.133.146.543 0 1.22l-.422.765c-.1.366 0 .46.253.366.423-.252.633-.613.633-1.13 0-.764.045-1.148.3-1.384-.46-.787-.93-.688-.764.163M53.447 11.627c0 .52 1.18.612 1.326.047.265-.623-.203-1.077-.048-1.704-.77.2-1.278.764-1.278 1.657M53.134 12.956c.27-.456.666-.61 1.28-.555.472 0 .73.1.73.556 0 .474.062.995-.054 1.404-.164.417-.204.374-.727.417-.564 0-.783-.265-1.393.097.352-.886-.048-1.24.164-1.918M55.342 10.96c-.25-.425.058-.58.318-.262.31.26.516.612.516.977.046.362-.36.67-.617.362-.266-.318.05-.62-.218-1.078M55.61 12.917c-.166-.51.043-.57.66-.324.41.364.48.63.256.838.415.418.415.99.044 1.65-.242-.205-.546-.102-.755-.396-.063-.216-.205-.112-.104-.9.042-.296.042-.563-.1-.867M56.328 17.14c.253 0 .42.16.42.318 0 .15-.222.246-.42.207-.265 0-.42-.158-.42-.313 0-.103.208-.212.42-.212M53.134 16.675c.27 0 .446.16.405.318 0 .147-.218.308-.464.256-.26 0-.47-.162-.42-.292 0-.177.21-.325.478-.283"/><path fill="#FFF" d="M57.053 16.106c-.304-.51-1.082-.873-2.224-1.027-.722-.103-1.696.11-2.74.362-.565.62-.766 1.55-.664 2.778l.475.106-.43.306h.566l-.364.514.306.12-.243.67.3.206-.135.41.393.047-.092.437.317.035-.11.42.32.095c.194.31.554.567.96.834.317.148.635.148 1 .095.606-.472.756-.875 1.284-1.443.146-.035.206-.367.206-.836.31-.15.406-.405.406-.762l.263-.366v-1.22c-.318.084-.516.142-.78.084l-.722-.307-.198 1.603c0 .31-.16.763-.518.613l-.88-.406c-.207-.095-.165-.422.096-.525l.318-.057v-1.377c-.518.15-1.082.188-1.61-.164-.184-.104-.404-.104-.606-.104.147-.29.352-.574.576-.72l-.316-.466c.092 0 .316.043.456.043.75-.043 1.09-.15 1.297.056.206.222.37.367.566.473l.05-.374c.148-.397.464-.503.943-.344l-.116 1.042 1.653-.523v-.33zm-3.823 4.226c.458-.097.98-.097 1.456 0 .826.22.873.534.087.987-.45 0-.974 0-1.492-.137.167-.26.3-.372-.05-.85m.61.372c.212-.154.523-.154.846 0 .143.106.087.268-.06.367-.22.055-.376.055-.574 0-.154-.148-.047-.26-.21-.367"/><path fill="#FFF" d="M54.005 19.107c.103 0 .154.04.154.16 0 .043-.052.112-.155.112-.05 0-.164-.07-.164-.112 0-.122.114-.16.165-.16M54.83 16.746c0-.113.057-.232.057-.373.253-.263.35-.417.35-.143 0 .204 0 .35-.043.515h-.365zM54.52 19.268c.05-.676.167-1.24.258-2.077h.362c-.05.572-.102 1.2-.31 2.19-.112.197-.204.093-.31-.112M50.54 15.7c-.047-.41.368-.354.416 0 .113.735 0 1.28-.36 1.652-.24.164-.61 0-.41-.295.355-.543.455-.895.355-1.358M50.234 18.64c-.1-.452.22-.61.306-.102.364 1.4.984 2.738 2.386 4.03.56.46-.062.863-.563.412-1.407-1.184-1.822-2.842-2.13-4.34M55.4 22.886c-.064-.415.112-.843.57-1.21.3-.184.4.18.26.367-.32.377-.57.377-.83.843M41.928 28.597c.044-.352.104-.61.302-.878-.084-.035-.258-.155-.35-.254-.267.57-.62 1.042-1.142 1.71.36-1.088.72-1.93 1.492-2.734-.084.362-.198.677-.302.923.104.1.25.2.364.32.107-.12.2-.22.26-.32 0 .157 0 .32-.062.472h.063l-.063.15-.05-.053c-.102.265-.26.42-.512.663M41.313 29.537c.04-.314.145-.52.36-.734-.06.374-.104.46-.36.734M44.04 29.944c.058-.198.113-.415.15-.568l.11-.102c0-.05.044-.15.105-.21.093-.094.197-.26.317-.352-.062.62-.224.817-.68 1.232M43.934 31.457c-.155-.534 0-.894.626-1.197 0 .782-.062.97-.626 1.197M45.168 30.976c.52-1.23.576-1.8.422-3.343.564 1.43.466 1.855-.422 3.343M53.58 35.688c.262-1.083.374-2.133.32-3.21-.104.05-.142.05-.255.1-.064.56-.198 1.245-.51 2.062.146-.674.27-1.343.18-2-.085.05-.18.098-.296.098-.05.468-.204.972-.413 1.658.12-.573.154-1.1.154-1.615-.153 0-.31.057-.467.057-.05.684-.15 1.407-.315 2.32 0-.76-.037-1.543-.037-2.262h-.513c0 .767-.103 1.554-.255 2.613-.046-.903-.046-1.8-.104-2.67-.16-.057-.33-.057-.528-.1 0 .817-.087 1.658-.255 2.77-.05-.964-.102-1.894-.102-2.818-.145-.05-.32-.11-.456-.16-.073.767-.217 1.555-.427 2.594 0-.95 0-1.766.06-2.697-.158-.055-.314-.104-.467-.164-.05 1.034-.15 1.98-.204 3.06-.174-1.357-.255-2.282-.174-3.21-.13-.047-.3-.107-.4-.192-.26 1.22-.352 2.325-.26 3.56-.353-1.606-.416-2.53-.054-3.68-.095-.096-.2-.132-.3-.208-.158.414-.412.886-.734 1.393.263-.507.375-1.025.523-1.497-.147-.1-.356-.198-.522-.297-.097.676-.405 1.34-.923 2.262.672-1.653.73-3.19.77-5.156.153.77.268 1.402.268 1.965.208.085.353.155.558.27.113-.896.162-1.727.162-2.692.255 1.133.366 1.95.2 2.727.167.048.316.154.476.154.06-.107.158-.258.24-.41-.036.15-.083.303-.132.46.096 0 .237.053.357.053.102-.292.15-.654.304-1.076 0 .422-.042.783-.042 1.17.147 0 .253.048.403.048 0-.247.06-.55.06-.875.092.372.092.63.145.954.168 0 .374.035.526.035V29.9c.095.444.2.817.252 1.177.205.058.43.058.616.058 0-.418 0-.79.062-1.235.104.444.147.87.256 1.235h.513v-1.86c.198.736.306 1.288.37 1.802.156 0 .31-.035.448-.035 0-.43-.108-.875-.14-1.345.21.47.348.866.405 1.267.097 0 .212-.048.31-.048-.058-.456-.156-.905-.212-1.428.212.523.388.926.473 1.333.09 0 .198 0 .305-.052-.106-.718-.15-1.495-.305-2.37 1.194 2.94 1.194 4.29.088 7.29M55.038 32.263l.198.475.735-.672c.204-.268.413-.2.556.16l.044-.837c.28-.157.483-.044.69.202.145-.203.145-.456.05-.77l.096-1.034c-.402-.663-.725-1.076-1.176-1.23.256.567.256 1.032.1 1.454-.06-.668-.358-1.145-.885-1.414.21.42.31.832.21 1.26-.095-.168-.256-.32-.514-.48l.097.634-.303.19.104 2.06zM59.777 28.597c0 .163 0 .27-.096.27-.09 0-.21-.107-.352-.27h.45zM59.47 27.72c.125.267.21.48.21.633h-.575c-.087-.154-.19-.317-.3-.516-.052 0-.052-.05-.052-.118h.718zM58.553 26.755c.155 0 .51.295.775.767h-.676c-.203-.404-.272-.767-.1-.767M58.237 28.558c.05-.058.27.154.47.46.14.313.208.57.14.615-.04.055-.238-.145-.397-.456-.213-.31-.26-.62-.213-.62M57.25 28.353c.065-.058.326.205.585.57.19.408.298.71.19.766-.05.057-.295-.2-.57-.565-.204-.414-.29-.726-.204-.772M40.574 26.338c.164.104.272.198.375.253.05-.055.146-.15.26-.252-.063.35-.165.465-.415.712.05-.142.1-.295.154-.403-.104-.11-.212-.206-.376-.31M35.984 78.12l-.2.658-.216-.105.122-.552M20 100.89c.67-.275.825.043 1.023.816.556.505.925.925.925 1.33 1.184.986.98 1.396-.62 1.243-.503-.147-.823-.508-.823-1.244L20 100.89zM20.24 104.84c-.394.626-.3 1.404.21 2.026.303.354.682.453 1.03.453l-.204-.556.613.413c0-.312-.262-.68-.833-1.087l.788.192c0-.407-.366-.75-.977-1.075h.51c-.246-.728-.71-.928-1.138-.367M22.266 105.208c.19-.045.35.21.403.522.06.317-.054.553-.242.622-.162.038-.373-.222-.436-.52 0-.3.1-.624.274-.624M32.738 69.848c0-1.64.725-3.237 1.65-4.848-.68 1.645-1.23 3.258-1.65 4.848M36.455 60.23c-.612.282-.666-.235-.21-.6.98-.825 2.06-1.146 3.305-1.146h2.174c.83 0 .715.838-.05.79H40.11c-1.39-.052-2.53.357-3.655.957"/><path fill="#FFF" d="M41.148 59.483c.576 0 1.03.087 1.03.204 0 .14-.455.198-1.03.198-.574 0-1.04-.058-1.04-.198 0-.117.466-.204 1.04-.204M45.384 48.532c-.105-.11-.364.26-.725.722-.317.4-.52.83-.47.83.06.047.366-.262.683-.718.354-.428.563-.834.51-.834M41.773 52.098c-.27.472-.164.732.372.92 2.044.615 4.052-.036 6.07-1.197l2.523-1.168c.477-.566.386-.72-.247-.52l-1.227.618.298-1.03c-.667.505-1.08 1.03-1.395 1.598l-.19-.503c-.316.242-.586.608-.685 1.073l-.26-.57c-.263.154-.456.35-.615.68l.102-.737c-.206-.15-.52.213-.928 1.036l.203-.773c-.15-.157-.41.146-.774.936l.824-2.49c-.41.053-.973.997-1.595 2.65-.26.036-.374-.05-.318-.26l.94-1.802c-.47-.064-.996.604-1.61 1.803l.727-2.063-1.332 1.752v-.684c-.32.106-.626.372-.885.732M42.032 85.696c-.205-.205.147-.424.253-.308l.63.57c.14.15-.21.416-.368.306l-.515-.568zM42.49 85.284c-.092-.142.17-.365.26-.258l.514.524c.15.146-.155.354-.25.248l-.524-.514zM42.796 84.826c-.205-.207.16-.47.316-.324l.62.64c.146.143-.264.41-.367.247l-.57-.564zM43.06 84.04c-.21-.248.254-.608.508-.46l.93.922c.262.27-.346.68-.507.476l-.93-.938zM44.04 83.233c-.308-.327.113-.723.365-.468l1.142.968c.3.264-.162.733-.422.512l-1.084-1.012zM44.722 82.693c-.26-.252.04-.61.3-.413l.988.845c.265.254-.164.608-.364.455l-.924-.887zM45.597 82.398c-.213-.212.048-.515.24-.366l.835.72c.212.207-.154.574-.308.413l-.767-.767zM41.47 76.554c0-.258-.42-.154-.47.058l-.106.93c0 .204.46.103.46-.043l.116-.946zM40.11 77.856c-.047-.417-.445-.212-.445.043l.084.723c0 .354.53.155.472-.043l-.113-.724zM38.57 78.828c-.063-.354-.317-.248-.317 0l-.036.668c-.055.374.354.21.354 0v-.668zM40.542 77.54c.088 0 .196.104.196.267 0 .146-.108.257-.196.257-.066 0-.164-.11-.164-.257 0-.162.098-.267.164-.267M39.078 78.474c.166 0 .27.15.27.305 0 .197-.105.323-.27.323-.143 0-.24-.126-.24-.324 0-.157.097-.306.24-.306M37.792 79.394c0-.29-.414-.29-.414-.052v.62c0 .315.467.256.467.058l-.053-.626zM49.005 40.36c.147 0 .253.167.253.376 0 .198-.105.417-.253.417-.11 0-.216-.22-.216-.417 0-.208.104-.376.215-.376M49.612 41.363c-.1 0-.145-.267-.145-.583 0-.343.043-.612.145-.612.107 0 .203.27.203.612 0 .317-.096.583-.203.583M50.604 41.097c.25 0 .465.106.465.205 0 .062-.216.156-.466.156-.212 0-.404-.095-.404-.156 0-.1.19-.205.404-.205M51.125 41.984c.098 0 .2.09.2.2 0 .154-.102.253-.2.253-.057 0-.177-.1-.177-.253 0-.11.12-.2.177-.2M51.94 41.926h1.9c.627 0 .73.303.32.89.206 1.005-1.084 1.682-1.026.024-.115-.304-.486-.463-1.193-.463-.314-.08-.314-.393 0-.45M48.96 54.062c.14 0 .242.097.242.26 0 .162-.102.318-.24.318-.118 0-.22-.156-.22-.318 0-.164.102-.26.22-.26M48.118 54.32c.153 0 .317.163.317.352 0 .156-.165.32-.317.32-.21 0-.315-.164-.315-.32 0-.19.106-.35.315-.35M49.152 54.88c.663-.466 1.34-.77 1.444-.61.104.145-.362.657-1.085 1.188-.72.46-1.337.712-1.498.563-.043-.163.424-.685 1.14-1.14M51.626 53.28c.41-.358.824-.566.89-.52.09.11-.223.477-.616.83-.43.32-.832.567-.887.47-.108-.107.203-.47.613-.78M50.04 57.207c.16-.37.305-.72.5-1.038l-.087-.062c.087-.612.56-1.08 1.172-1.39l.11.057c.205-.207.465-.35.78-.516-.152.257-.273.515-.427.73l.154.1c.364-.373.833-.665 1.338-.83-.3.41-.61.73-.974 1.04l.315.195c.485-.404 1.033-.72 1.486-.928-.354.358-.718.767-1.125 1.126l.36.222c.467-.37 1.045-.615 1.552-.726-.266.208-.506.41-.72.616.356-.113.763-.113 1.28-.152-.663.306-1.067.412-1.594.612l.412.26c.52-.307 1.09-.46 1.545-.46-.364.2-.774.46-1.19.673l.368.206c.458-.253 1.034-.366 1.492-.31-.402.155-.762.31-1.125.517l.195.145c.473-.188.93-.298 1.396-.298-.406.154-.725.357-1.075.508l.31.164c.414-.164.83-.164 1.187-.094-.317.094-.62.143-.923.3l1.09.668-.21.1-1.66-.556c-.115 0-.155.037-.218.1 0-.063.063-.1.103-.165l-.412-.097c-.208.097-.46.26-.726.36.168-.198.265-.36.426-.464l-.426-.152c-.198.107-.467.256-.713.353.103-.147.247-.353.402-.517l-.402-.15c-.316.22-.558.422-.87.57.146-.256.312-.466.505-.67l-.565-.216c-.26.257-.522.466-.783.68.07-.26.224-.567.434-.774l-.525-.207c-.26.26-.574.52-.876.77.146-.302.302-.614.513-.87l-.824-.315c-.274.314-.627.622-.974.882M44.25 58.806c-.682 1.343-1.333 3.403-1.81 7.592-.256 1.868-.405 3.705-.042 5.63.193 1.03.656 1.393 1.114 1.334l7.703-1.238c.57-.097 1.148-.564.873-1.085l-.302-.62-.262.884-.4-.734-.31.83-.46-1.02-.37 1.223-.474-.974-.253 1.03-.253-.88-.31 1.076-.364-.963-.318 1.168-.41-1.125-.31.83-.358-.67-.263.615-.358-.516c-.37-.156-.715-.156-1.086 0l-.147.25-.207-.25c-.573-.156-1.197-.26-1.764-.365l.718-.367c0-.256-.26-.36-.72-.302l.77-.572-.824-.155.774-.47c0-.198-.205-.407-.815-.654l.815-.258v-.208l-.815-.1.866-.413c.112-.206-.144-.372-.712-.57l.71-.2c-.05-.222-.098-.474-.613-.682l.614-.21-.615-.466.776-.303c0-.257-.105-.373-.57-.57l.83-.36c-.048-.162-.26-.418-.787-.58l.787-.24-.624-.426.728-.313-.576-.2.67-.418c.16-.146-.094-.302-.67-.353l.773-.31.06-.314-.727.092.366-.304-.473-.373 1.098-.235.1-.204-.775-.22.622-.35c-.11-.314-.316-.414-.62-.414m1.184 1.08l.162-.058c-.67 3.676-.996 7.177-.473 10.333-.25-4.908.367-10.118 1.292-10.997l.16.37c-1.085 3.922-1.192 7.425-.466 10.57-.464-5.366-.054-8.458.88-10.108v.51c-.716 3.768-.792 6.826-.106 9.282l.208-.146c-.475-3.924-.208-6.98.413-10.01l.354.058c-.72 3.966-.72 7.072-.198 9.9l.197-.202c-.418-4.08-.355-6.93.27-9.5l.306.057c-.578 3.928-.632 7.016-.105 9.546l.188-.057c-.387-4.285-.187-7.33.377-9.604l.2.213c-.4 3.413-.352 6.4 0 9.236l.213-.096c-.104-3.723-.302-6.663.16-8.826l.26-.315c-.377 2.73-.377 5.778.088 9.186h.212c-.373-4.026-.247-7.064.157-9.54l.207.14c-.207 3.26-.207 6.203.063 9.45l.187-.05c-.187-4.434-.037-7.48.428-9.286.402-.15.402.357.057.934-.272 2.676-.386 5.367 0 8.308l.302.044c-.303-4.278-.058-6.77.41-9.186.25-.25.526.06.198.668-.364 3-.565 5.11-.25 8.518h.362c.405.158.458.322.06.482-2.554.497-4.972.96-7.282 1.12-.47.062-.626-.202-.626-.874-.15-3.67.254-7.023 1.134-10.072m8.518 2.128l.3-1.56c.372-.223.52-.097.464.313l-.666 1.273-.098-.026zm-.553-1.657c-.38 2.577-.38 4.14-.64 6.814l.21.455c.048-2.982.472-4.9.87-7.172.165-.41-.257-.51-.44-.096m-.793-.126c.154-.188.412-.128.364.127-.416 2.226-.667 4.845-.727 7.84h-.154c-.15-2.89-.054-5.472.517-7.966m-10.73 16.9c-.05-.834.05-1.704.355-2.577.106-.378.473-.583 1.083-.62l6.92-1.037c.37-.055.406.16.37.61-.112.67-.213 1.31-.515 1.82-.274.21-.31-.68-.274-2.014-.508 1.24-.304 2.518-1.122 2.732-.363-.566.2-1.654.31-2.476-.787.726-.522 1.585-1.2 2.52-.25.054-.202-.82-.04-2.216-.374 1.045-.673 1.867-1.028 2.217-.218-.294-.218-1.087-.16-1.917-.303 1.36-.668 2.28-.98 2.437-.106-.78-.05-1.502.048-2.22l-.154-.154c-.212 1.3-.412 2.06-.73 2.436-.263-.74-.304-1.563.112-2.378h-.317c-.212.668-.305 1.24-.622 1.446-.42-.07-.62-.513-.62-1.3-.356 1.44-.874 2.233-1.435 2.69"/><path fill="#FFF" d="M54.927 62.527c-.407.306-.56.67.266.623-.567.503-.622.874-.155 1.03-1.033 1.28-1.033 1.64-.062 1.07-1.135 1.45-.972 1.667-.203 1.394-.978 1.2-.82 1.348-.52 1.407-.67.913-.67 1.382-.045 1.335-.52.205-.894.626-.98 1.443-.21.83-2.41 1.745-.582 2.54.583.287 1.04 1.073 1.405 2.417.157.717.468.768 1.092.505.516-.147 1.032-.2 1.537-.246.987.1 1.05-.983-.05-1.126.118-.417-.26-.624-.816-.366.456-.774-.104-.576-.31-.68.31-.158.248-.505-.578-.058l-.098-.246c.465-.15.615-.417.677-.72l-1.398.463c.412-.374.61-.625.58-.878l-1 .203c1.03-.722 1.456-1.237 1.403-1.483l-1.086.292c.77-.616 1.29-1.132 1.23-1.434l-.922.368c0-.318.405-.63 1.193-.83.604-.322.915-.74.822-1.284l-1.4.66C56.06 67.89 57 66.957 57.25 66.337c-.087-.354-1.232.422-2.73 1.654v-.247c1.45-.985 2.532-2.125 3.353-3.415l-2.73 2.123 2.486-2.948c-.173-.354-.88.048-2.294 1.496l.108-.306 1.305-1.4c.98-.575 1.59-1.28 2.014-2.174.254-.666-.63.216-1.98 1.407-.298.306-.674.465-1.03.83l3.16-3.315.046-.41c-.308-.307-2.33 2.065-4.033 2.897m-3.71 12.744c-.576-.35.056-1.19.455-.827l1.56 1.14c.457.352 0 .972-.367.71l-1.65-1.022zm.62-.975c-.564-.36.104-1.092.465-.79l.832.837c.45.416.147.768-.27.577l-1.027-.625zm3.307 3.085c-.426-.206-.624.118-.37.313.67.573 1.4 1.036 2.166 1.41.79.393 1.612.456 2.387.456.563 0 .816-.36.098-.524-1.342-.363-2.676-.77-4.28-1.656m.414-.057c-.266-.305-.224-.55.15-.77l1.86-.154c.358 0 .66.222.983.618l.873.992c.352.463.045.817-.32.72-1.232-.362-2.425-.83-3.547-1.407"/><path fill="#FFF" d="M57.405 72.434c.318-.578.784-.988 1.442-1.24 1.77-.26 3.525-.625 5.158-1.237.535-.365.747-.253.668.302-.133 1.597-.34 2.944-.817 3.357V70.83l-.188.063c-.178 1.394-.375 2.42-.73 2.822l.1-2.562h-.267l-.55 2.503.152-2.21c0-.293-.108-.353-.264-.202-.34 2.57-.815 3.675-1.345 4.026.53-1.654.53-2.78.41-3.78l-.147-.085c-.15 1.333-.367 2.637-.827 3.6-.52-.768.46-2.11.252-3.4h-.093l-.94 3.212c-.315 0-.204-.426.118-1.247l.08-1.804-.146.09c-.255.995-.51 1.714-.863 2.32l.144-2.36-.67 1.69.05-1.376-.73.304zm7.642-1.97c.057-.565.677-.408.42.164l-.323.697h-.154l.057-.862zm-.155 2.12c.044 0 .097.154.097.353 0 .215-.054.375-.098.375-.053 0-.092-.16-.092-.375 0-.2.04-.354.092-.354m.252-.768c.108 0 .164.04.164.203 0 .11-.056.193-.164.193-.097 0-.208-.08-.208-.192 0-.163.11-.203.208-.203m-.04-3.15c.147 0 .26.21.314.453.05.268.05.522-.11.522-.057.063-.204-.152-.26-.413-.06-.263 0-.498.056-.562m-.77-1.505c.466.466.505.876.466 1.253-.048.514-.466.865-.466.514-.048-.456 0-.984-.368-1.596-.207-.264.157-.372.368-.17m-3.77-.917c.055-.527.462-.11.462.198l-.15.83c-.16.156-.217.06-.37-.266l.057-.76zm-1.81 2.684c-.413.257-.413.46.052.623l.212-.062v.062c0 .2.087.35.198.35.096 0 .204-.148.204-.35v-.164l.47-.107v1.034c-.15.066-.294.066-.518.102 0-.102-.094-.157-.156-.157-.11 0-.198.12-.198.204 0 0 .05.062.05.105-.108.06 0 .06.21.21l3.45-.773c1.03 0 1.277-.778 1.03-2.014.146-.402.046-.565-.303-.516l-.794-.097.466-.313c.633-.307.633-.456.118-.456l-1.087-.168.882-.154c.253-.044.368-.373-.05-.513l-.93-.106.712-.162c.473-.36.217-.607-.663-.712.312-.368.263-.615-.1-.615-.16-.362-.627-.618-.457.046l.217 3.4c.08.367-.073.633-.477.788l-2.54.513zm1.963-1.337c.16 0 .25.093.25.254 0 .148-.09.262-.25.262-.098 0-.212-.113-.212-.262 0-.16.114-.254.212-.254m2.054 1.075c.06 0 .123.063.123.1 0 .11-.064.162-.122.162-.04 0-.11-.05-.11-.162 0-.036.07-.1.11-.1m-.195-.673c.196-.05.364 0 .413.113.05.152-.095.258-.327.308-.186.058-.352 0-.396-.155-.043-.05.108-.222.31-.266M60.2 70.207h.088v-1.023l-.255.095.166.927zm.563-.15c.113 0 .17-.05.263-.05v-.975l-.463.086.2.938zm.62-.21c.057-.06.1-.06.17-.096v-.823l-.215.037.044.884zm.467-.206s.097 0 .16-.05c.362-.406.362-.626-.063-.714h-.097v.765zM69.848 20.866c-4.272-.364-6.358 1.036-7.476 2.48-.99 1.223-1.496 2.628-1.61 4.175.114.266.577-.307 1.247-1.183l-.416-.164c.102-.3.268-.56.46-.872.11-.164.11-.414.367-.562.31-.17.52-.473.52-.567h-.365c1.184-1.458 2.837-1.813 4.696-1.75.518.05.99.093 1.448.15.253.054.51-.057.667-.15.155-.12.205-.268-.046-.268-1.65-.25-3.302-.147-4.907.205 1.2-.772 2.9-.822 5.313-.72.99.04 1.028-.665.102-.77M62.372 48.42c.148.11.203.43.102.788-.102.302-.366.562-.53.51-.174-.054-.248-.406-.155-.728.153-.358.375-.62.582-.57m-3.732 1.51c.067 0 .166.252.166.51 0 .31-.098.523-.166.523-.087 0-.134-.215-.134-.522 0-.26.047-.512.134-.512m.32 1.808c.145-.988.63-1.865 1.446-2.425.72-.522.887-.368.305.353-.506.672-.82 1.494-1.238 2.222-.144.306-.625.68-.512-.15m2.165-3.942c-.72.285-1.29.736-1.653 1.414-.255.612-.143.663.306.197.466-.514 1.05-.83 1.562-1.234.213-.154.43-.53-.215-.377M56.68 51.26c-.352.48-.308.628.324.372.974-1.5 1.637-2.48 2.212-2.78l1.752-1.57c1.34-.3 2.128-1.747 2.38-4.17l-.104-.294c-.668 1.68-1.455 2.934-2.48 3.602-.928.666-1.7 1.498-2.42 2.475-.317.316-.317.666-.57 1.075-.317.424-.833.844-1.093 1.29m-.41-1.076c-.298.566-.04.78.26.307 1.2-1.64 2.023-2.792 3.248-3.806 1.156-.896 2.798-2.487 3.466-4.608.42-1.225-.05-1.59-.35-.824-.673 1.86-1.46 3.503-2.69 4.5-1.398 1.132-2.888 2.42-3.933 4.432m-.16-1.702c-.26.463-.295.83-.086 1.077.98-.35.657-1.92 3.08-3.142.322-.407.224-.56-.298-.407l-2.275 1.63c.787-1.222 1.56-2.205 2.687-2.448.72-.126 1.403-.44 2.02-1.095.255-.578.146-.73-.268-.473-1.378.933-2.59 1.28-3.653 2.125-.988.824-1.656 1.846-1.916 3.04l.71-.308zm-.14-2.99c.4-.882 1.544-1.45 3.135-1.973 1.1-.352 1.97-1.144 2.757-2.063.8-.523.658-.058.402.526-.32.5-.495.667-1.03.966-.615.524-1.553.99-2.274 1.308-.87.3-1.708.808-2.475 1.752-.46.36-.67.187-.514-.517m2.41-2.957c.784-.46 1.455-.917 1.98-1.686.714-1.035 1.022-1.092.813 0-.205.875-.814 1.8-2.11 2.262-1.086.408-1.395-.1-.683-.576m3.258-2.367l.37-1.867c.047-.718.3-1.386.77-1.957l.572-1.546c.14-.626.41-.557.41.208l-.352.986c.304.154.154.458-.058.773-.057.357-.057.768-.41.868-.11 1.394-.278 2.534-.675 2.893-.627.774-.83.675-.627-.36m-2.473-.254l.82-2.015c.22-.725.58-1.132 1.042-1.183l1.14-1.083c.255-.31.41.104.255.36l-.827 1.334c-.16 1.092-.568 2.06-1.55 3.2-.21.208-.573.208-.363-.09l.978-1.977-1.233 1.708c-.365.473-.41.104-.262-.254m-1.435.823c.458-1.25.612-1.908 1.075-2.316.564-.577.732-.52.36.15-.25.52-.613 1.246-.613 2.526 0 1.046-1.3.834-.822-.36m-.1-1.645c.04.397.1.297.298 0l.452-1.3c.534-.46 1.238-.977 1.908-1.797.33.458.885.048 1.767-1.138 1.07-.524 1.61-1.335 1.912-2.378.255-.886.108-1.03-.477-.47-.83 1.09-1.435 1.513-1.72 2.28-1.006.317-1.784 1.4-2.922 1.897-.294.223-.398.532-.398.94-.473.307-.782.84-.82 1.967m.1-2.528c.11-.154.295-.216.403-.154.103.114.103.31-.044.465-.113.198-.32.25-.46.152-.054-.108-.054-.308.1-.463m5.723-8.843c.726-.868 1.587-1.483 2.425-1.845.983-.424.93.36.253.36-.5 0-1.233.452-2.418 1.963-.305.4-.674.047-.26-.48m-6.82 10.535c-.147-1.845.264-2.93 1.14-3.552 2.372-1.445 3.196-3.565 3.997-3.51.75-1.333 1.94-2.745 3.338-4.028 1.022-.72 1.232-.57.668.557-1.49 2.137-3 4.65-4.342 5.38-.607.033-1.076.42-1.45.992l.948-.48c.45-.057.5.097.19.41-.765.426-2.062 2.43-2.36 1.133-.526.993-1.408.838-1.447 1.81l-.102 1.288c-.21.373-.37.373-.582 0m9.204-13.513c.447.05.663.212.296.608-1.142.467-2.23 1.34-3.238 2.586.095.465-.115.87-.63 1.187 0 .78-.475 1.14-1.237 1.225L59.89 31.8c.253.37-.152.938-.976 1.756-.534.585-.726.41-.63-.514.63-1.7 1.825-4.166 2.375-4.166.308 0 .308-.115.414-.676.05-.413.48-.326.36 0-.052.398.057.463.335.154 1.268-2.118 2.662-3.217 4.064-3.614m-3.462.504c.92-1.07 2.525-1.8 5.508-1.757.64.05.53.686-.044.632-.465-.063-.975.146-1.442.257-.56.145-1.19.19-1.72.51-1.01.563-1.944 1.5-2.76 2.797-.32.15-.36.034-.217-.32 1.033-1.862 2.27-2.842 3.555-2.943l.056-.105c-.707-.143-1.596.157-2.886 1.347-.158.152-.2 0-.05-.418m1.118-1.596c1.15-.71 2.435-1.133 3.93-.935.936.12.936.68.416.633-1.442-.212-2.846-.157-4.223.493-.517.28-.42 0-.123-.192M70.672 19.415c-.353-.467-.097-.723.507-.667 1.61.303 3.008.52 3.89 1.236.512.348.096.72-.275.465l-1.072-.57c.05.452-.348.262-.986-.257-.397.407-.916.207-1.496-.405l.36 1.018c.06.214-.154.214-.244.06l-.684-.88zm2.232.82c-.21.166.043.527.2.688.2.203.477.112.357-.22-.05-.302-.356-.618-.556-.468M76.192 21.537c-.13-.102-.497-.26-.028-.353-.527-.317-.328-.734.028-.783 1.39-.068 2.492-.823 4.074.05l.74.826c.448 1.082.047 1.61-.575.824-.308-.46-.054-.875-.82-1.234.423.773.718 1.554.718 2.422 1.18 1.133.103 1.39-.206.674l-.462-2.106c.097 1.03.166 1.79 0 1.79-.366 0-.145-.71-.31-1.604-.113-.366-.213-1.007-.4-1.07-.895-.305-1.712-.05-2.384 0 1.137-.05 1.9 0 2.158.303.373.52.414 1.082.26 1.61-.26.402-.417.303-.417-.217l-.157-.664c-.035-.366-.45-.42-1.026-.366-.358.04-.765.158-1.192-.1M61.85 60.09c1.64 2.753 3.563 5.37 5.74 7.853.246.315.043-.61.246-.27.465.992 1.195 1.915 1.503 2.22.304-.252-.68-1.128-.823-2.147l2.926 3.408c.287-.482-1.43-2.488-2.824-4.235l.195-.224 3.367 4.398.16-.056c-.52-1.45-2.076-3.194-3.112-4.795l.11-.365c.625.767 1.436 1.966 2.104 2.932.994 1.398 1.862 2.64 2.14 2.75 1.213.296-2.95-4.083-4.864-7.743l.048-.214c2.252 3.464 4.292 6.605 6.508 8.064.258.148.47-.176.21-.473-2.022-2.385-4.39-4.95-5.84-7.28l.102-.204c2.173 2.577 3.313 5.518 7.436 8 .265.146.403.42.67.205.923-.72-3.565-1.813-7.017-7.643l.06-.402c1.288 1.75 1.483 2.275 2.688 3.51 1.633 1.804 4.226 3.912 4.635 3.61.41-.362-3.725-3.206-5.945-6.66l.106-.105c1.76 2.42 4.243 5.363 7.854 7.225.513.26.308.218.944.218 1.59.1-3.59-2.54-6.264-5.48l.058-.273c.776.696 1.748 1.563 2.84 2.44 1.28.924 2.624 1.748 3.702 2.375.986.515 1.762.83 2.11.676.946-.47-3.54-2.068-4.67-3.26.653.364 1.316.62 1.892.887 1.972.974 3.354 1.64 3.673 1.28.193-.257-.827-.824-2.64-1.503-.204-.198-.04-.24.468-.145 2.062.823 3.25 1.39 3.52 1.228.67-.183-.416-.665-1.668-1.422 1.555.658 2.89 1.28 3.618 1.08.267-.062-.875-.674-1.845-1.558 1.396.884 4.684 2.063 1.534-.148l.213-.1c1.19.867 2.68 1.22.87-.212h.267c1.025.822 1.592 1.432.82-.26 1.032 1.492 2.07 2.064.683-.1l1.57 1.24c-.55.252-.5.396 0 .715 1.357.878 1.475.72 1.21 0 .147-1.383-.367-2.32-1.285-2.885-1.05-.67-.986.095.193 1.953-.458-.353-.815-.77-1.08-1.19-.208-.396-.67-.668-1.178-.668-2.422.06-4.806.512-7.08.834-1.753.256-3.103 0-3.722-.41-.608-.518-.824-.73-.516-1.3.21-.46 0-.817-.308-.965l-1.65-3.314c.206.365.467.518.67.833.67 1.075 1.13 1.955 1.288 1.9-.25-.717-1.127-2.33-1.81-4.123 1.303 2.25 2.43 4.242 2.745 3.97-.16-.882-1.187-2.58-2.222-4.33.31.314.403.404.626.66.41.518.76.99.968.874-.813-1.69-1.7-2.776-2.61-3.088-1.457-.52-2.333-.723-2.14.213l-.72-.833-.77-.104c-.263.104.104.518.63 1.392l-.174.1-.86-1.388c-.266-.147-.625-.31-.687 0l.476.93-.983-1.077c-.464-.273-.977-.37-.977-.163l1.437 2.376c-.263-.366-.663-.718-1.022-1.233-.58-.79-1.04-1.35-1.718-1.45-.656-.06.68 1.032 1.605 3.246l-2.21-3.19c-.22-.16-1.095-.324-1.136 0l2.562 3.703c-1.182-1.34-2.372-2.472-3.028-3.76-.172-.15-.323-.15-.47-.15-.105-.063-.207 0-.317.092l3.148 4.08c-.622-.57-1.223-1.178-1.704-1.764-.656-.933-1.275-1.54-1.802-2.362-.2-.268-.634-.164-.668-.047-.255.348 2.368 3.044 3.514 4.643-1.6-1.5-2.846-2.943-3.975-4.644-.515-.27-.887-.27-1.053 0-.138.304 3.215 3.506 4.507 5.524-1.755-1.865-3.455-3.618-4.855-5.525-.204-.27-.836-.27-.836 0 0 .51 2.9 3.142 5.225 6.353-1.707-1.878-3.76-4.357-4.648-4.878-.412-.037 1.04 1.78 4.34 5.54-1.657-1.49-3.148-3.106-4.55-4.8-.397.353 1.402 2.624 4.03 5.52l-4.125-4.34c-.58-.352-.664-.315-.367.206m17.552-.974c-.356-.51.157-.767.572-.16.824 1.4 1.593 2.59 2.162 3.923.25.624-.103.773-.364.21-.657-1.505-1.506-2.692-2.37-3.974m-1.595-.51c-.256-.418.41-.68.917.04 1.21 1.66 2.23 3.308 3.048 5.007.458 1.03 0 1.296-.457.38-.986-2.02-2.27-3.788-3.508-5.428"/><path fill="#FFF" d="M70.42 23.696c-.056.93.474 2.118 1.443 2.895 0-.15-.463-.88-.77-1.498-.312-.71-.462-1.297-.674-1.396m3.19 32.22c-.093-1.49-.916-2.584-2.592-3.818.076.36 1.112 1.234 1.72 2.328.637 1.03.637 1.268.87 1.49m-.037-1.55c-.195-.15-.362-.733-.876-1.536-.527-.896-1.388-1.773-1.453-2.016 1.348.965 2.22 2.374 2.33 3.55m-.195-1.966c-.167-.14-.317-.578-.682-1.174-.423-.668-1.09-1.352-1.135-1.56 1.08.73 1.746 1.76 1.817 2.734m-.21-2.004c0-.673-.528-1.402-1.247-1.817.06.17.458.575.776 1.048.253.396.364.67.47.77m-.788-28.283c-.247.87 0 2.12.832 3.132.05-.2-.26-.977-.47-1.697-.15-.666-.205-1.343-.362-1.435M63.25 55.335c-.776.064-.94-.085-.986-.852.362.345.675.508.986.852m-1.036-1.33c.523.513 1.036.823 1.542 1.395.25.097.53.097.784-.11-.83-.863-1.602-1.377-2.485-2.264.053.306.11.683.16.98m-.206-1.437c1.086 1.062 1.895 1.75 2.882 2.765.318.16.52.16.684 0-1.192-1.478-2.284-2.62-3.467-4.11-.1.442-.1.92-.1 1.344m.204-1.674c1.347 1.562 2.625 2.9 4.03 4.6.39.2.716.2.866.052-1.333-1.752-3.036-3.66-4.59-5.578-.1.256-.148.474-.256.683-.05.097-.05.16-.05.243m.36-1.272c1.76 2.008 3.36 3.812 5.214 6.03.266.153.513.153.73.04-.218-.198-1.457-1.69-1.662-1.948-1.493-1.858-2.378-2.85-4.078-4.896-.04.254-.117.516-.204.774m.32-1.092c1.858 2.063 2.52 2.99 4.53 5.38.21.305 1.293 1.377 1.495 1.635.264.52 1.147.52.723.147-.364-.405 0-.093-.514-.768-1.654-2.005-4.378-5.303-6.034-7.38-.058.37-.157.67-.203.986m.247-1.25c.046-.302.11-.56.152-.833 1.547 1.97 4.588 5.648 6.35 7.81.934 1.14.89 1.075 1.376 1.656 0 .253-.188.15-.542.045-.464-.503-.41-.464-.886-1.08-2.165-2.52-4.55-5.473-6.45-7.598m.152-1.085c.115-.34.115-.762.16-1.13 1.657 2.574 4.025 5.326 6.66 7.763-.207-1.05-3.516-3.885-5.522-6.563-.412-.732-.783-1.4-1.03-1.967.052-.32.052-.56.107-.94 1.372 2.838 3.604 5.492 6.696 8.163-.352-.926-3.556-3.503-5.255-6.233-.63-1.092-1.103-1.967-1.352-2.697v-.45c1.387 2.764 3.834 5.654 6.72 8.153-.305-.93-3.62-3.61-5.228-6.252-.66-1.143-1.07-2.022-1.393-2.74v-.522c1.354 2.695 4.345 6.303 7.084 8.675-.31-.88-4.022-4.13-5.577-6.64-.676-1.197-1.142-2.124-1.397-2.86v-.725c1.142 2.695 4.037 6.254 6.862 8.565-.298-.866-3.87-3.816-5.325-6.242-.752-1.282-1.17-2.268-1.43-2.984 0-.267 0-.57.048-.78.987 2.738 3.714 6.03 6.615 8.272-.318-.773-3.626-3.47-4.96-5.74-.885-1.493-1.3-2.48-1.6-3.197 0-.31 0-.555.045-.884.817 2.695 3.41 5.945 6.31 8.215-.212-.77-3.305-3.203-4.654-5.363-.986-1.66-1.288-2.745-1.59-3.463v-.15c.047-.323.047-.678.096-1 .56 2.696 3.042 6.162 5.98 8.535-.19-.675-3.04-3.1-4.233-5.115-1.143-1.905-1.38-3.043-1.75-3.655.867-7.44 4.022-11.823 8.613-12.604l.108.038c-.156.896 0 1.97.506 3 .114-.204-.147-1.234-.198-2.104v-.776l.41.105c.048 1.035.414 2.014.886 2.108-.363-.566-.42-1.295-.42-1.897l.577.15c0 1.084.352 2.26.88 2.308-.47-.616-.47-1.422-.42-2.097l.103.043c.106.422.27.832.476 1.032.198-.258.094-.765-.067-1.343.57-.302 1.236-.255 1.97.217.25.293.155.46-.222.46h-.345l.817.353c.046.113.207.21-.25.254l-.317.266 1.078.085c.382.17.33.28.203.43l-.247.3c.924 0 1.908.222 3.087.84-.044.406-.496.35-1.38-.106.2.512 1.023.573.967.872-.082.58-1.327.062-1.906.77l1.41.054c.305.213.2.364-.267.364.74.88 1.3 1.135 1.507.508.198-.456.406-.456.606 0 .89.526 1.043.576.525.685l-.838.154.986.165c.258.088.258.302.104.456-.67.1-.72.207.515.26.532.267.718.5.532.707-1.097.058-1.047.223.248.315.31.157.415.364.364.524-.69.154-.575.31.254.31.097.146.212.258.05.4-.77.22-.67.323.307.323.065.36.623.308.83.78.818-.168 1.182.408.46.408l-.058.163c1.193.036 1.716.35 1.56 1.085-.1.297-1.704-.64-1.02 1.847l.24.266c.476.097-.045-1.14.73-1.03.093.05.206.42.05 1.03-.155.555-.514.818-1.092.458-.507-.36-.82-.724-.763-1.133l.044-.767c-.562.05-.66-.324-.715-.88 0-.107-.2-.073-.16-.22-.927-.146-1.33.146-1.597.833-.067.266-.265.052-.366-.21.05-.16-.3.056-.518-.047-.147 0-.102-.357-.263-.304-.09 0-.09.155-.303.155-.155-.062-.106-.43-.42-.126-.2.222-.248.222-.292-.084.044-.255.256-.783-.327-.074-.198.127-.256.127-.357-.147-.305-.877-.51-.918-.61-.145-.163.292-.317.366-.317-.102-.292-1.35-.356-1.35-.247-.06-.045.58-.21.527-.52-.16-.364-1.07-.513.114-.79-.412-.35-.607-.085-1.5-.714-1.75l.364 1.81c0 .256-.417.305-.458-.1-.213-1.19-.984-3.254-.835-2.576l.458 2.452c.063.225-.51.123-.606-.184l-.62-3.093c-.164-.894-.164 1.63.21 2.722 0 .16-.402.16-.374-.05 0-.256-.45-3.198-.61-3.04-.37.368.61 3.292-.157 2.833-.104-.05-.357-2.992-.463-3.06-.053 0 0 2.863-.1 2.803-.832-1.023.047-3.82-.52-3.978-.107 0-.354 3.4-.474 3.3.366 2.642 2.487 2.752 2.324 3.514l-1.486-.763c.403.762 1.037 1.598 1.458 2.473-.47.154.028.767.346 1.082-.45-.06-.346.268.516 1.078.212.16.258.318.212.458-1.074-.25-1.18-.25.57 1.13-1.093-.148-1.15-.04.103.792.19.148.464.465.508.772.048.216-.157.094-.26.094-.2-.094-.514-.294-.608-.366-.313-.036-.106.366 1.345 1.458.345.315.518.57.247.67-1.76-1.088-1.654-.825.27.828.457.714.514 1.03.344 1.14-1.54-1.296-2.577-2.125.113.56.455.46.56.774.208.815-2.696-1.997-1.23-.675.564 1.204.1.092 0 .248-.106.204-2.577-1.928-2.687-1.448.063 1.398.098.253.23.463.142.665-.043.103-.263 0-.366-.038-1.854-1.766-1.692-1.405.417 1.49.322.467.46.875-.05.607-2.325-2.635-3.04-3.2-.044.835.303.515.353.77-.057.62-2.12-2.886-2.176-2.536-.106.562.162.355.162.42 0 .355-1.912-2.313-2.482-2.884-.106.52.312.622.27.72-.054.414-2.32-2.894-2.374-2.525-.11.466.214.366.334.573-.035.41-2.68-3.042-2.68-2.925-.108.37.05.817.05.77-.462.37-.246-.32-.246-.577-.518-.837-1.654-2.022-1.858-1.86.1.722-.196.21-.473.21-.775-.057-1.713-2.215-1.845-2.215-.507-.097l-.935-.154c-.16-.318-.31-.473-.516-.67-1.602-1.56-2.168-1.71-.57.308.056.044-.105.102-.04.154l-1.824-.31c-.208 0-.468-.11-.666-.37-.773-1.34-1.244-1.842-2.517-3.08.09.445 1.085 1.296 1.844 2.576.21.817-.727.457-1.008.304-.593-.778-.79-.877-1.62-1.85-2.322-2.74-4.803-5.84-6.818-8.015m6.248-21.674c.16.104.366.78.78 1.547.417.838 1.03 1.615 1.08 1.863-1.228-.99-1.916-2.32-1.86-3.41m-.774.825c.205.216.364.89.824 1.814.52.926 1.35 1.856 1.35 2.168-1.35-1.13-2.174-2.684-2.174-3.982m-.712.928c.247.21.41.97.977 2.02.56 1.035 1.546 2.118 1.602 2.42-1.602-1.228-2.578-2.997-2.578-4.44m-.63.937c.052 1.59 1.187 3.555 2.94 4.955-.045-.37-1.235-1.557-1.846-2.74-.683-1.133-.832-1.962-1.093-2.215m-.57.986c.105 1.744 1.346 3.866 3.355 5.46-.1-.405-1.444-1.75-2.156-3.05-.73-1.28-.944-2.16-1.198-2.41m-.513.977c.154 1.9 1.537 4.226 3.724 5.94-.104-.478-1.663-1.86-2.434-3.32-.825-1.383-1-2.31-1.29-2.62m-.51.99c.204 2.105 1.8 4.585 4.13 6.446-.116-.507-1.818-2.07-2.736-3.63-.834-1.496-1.047-2.463-1.393-2.816m-.42.968c.21 2.268 1.952 4.97 4.492 6.97-.154-.57-2.025-2.22-2.986-3.862-.93-1.665-1.143-2.697-1.507-3.108m-.373 1.033c.21 2.436 2.128 5.31 4.866 7.484-.205-.624-2.22-2.43-3.31-4.23-1.02-1.76-1.183-2.844-1.556-3.254m-.4.965c.35 2.605 2.528 5.896 5.428 8.23-.22-.672-2.59-2.793-3.724-4.702-1.095-1.908-1.304-3-1.705-3.527m6.806-10.153c.157.048.375.624.564 1.192.22.504.523 1.07.523 1.234-.804-.666-1.184-1.652-1.087-2.426m13.48 13.633c-.56-.572-.925.104-.156.817.677.617 1.395.412 1.198.205l-1.043-1.022zm-4.183-6.41c-.1 0 .05.618.09.932 0 .31.115.53.338.776.185.258.284.316.243.215-.216-.58-.41-1.083-.465-1.562 0-.21-.116-.315-.205-.36m-.71-.775c-.105 0 .046.74.046 1.09 0 .303.094.617.296.928.224.257.323.352.267.257-.212-.728-.412-1.29-.412-1.847-.056-.267-.15-.368-.196-.428m-.793-.766c-.098-.065.05.767.05 1.195 0 .392.06.755.32 1.12.216.312.317.41.26.255-.155-.77-.422-1.444-.422-2.107 0-.323-.034-.414-.207-.463m-.717-.79c-.104-.086 0 .888 0 1.35-.056.466.043.84.247 1.298.276.366.373.456.327.302-.147-.92-.373-1.697-.373-2.422 0-.365-.098-.466-.2-.527m-.717-.823c-.104-.05 0 1.038-.06 1.547-.044.527.06.94.255 1.405.213.458.373.56.306.412-.15-1.04-.348-1.914-.306-2.73 0-.36-.092-.522-.195-.634m-.78-.774c-.1-.102 0 1.09-.05 1.71-.05.514 0 1.032.26 1.55.208.524.314.63.314.465-.166-1.126-.37-2.128-.312-3.058.046-.406-.058-.554-.212-.666m-.67.062c-.05-.102-.05.875-.1 1.347-.064.456 0 .873.208 1.278.16.413.25.525.25.368-.09-.93-.25-1.697-.204-2.42.056-.374-.046-.47-.154-.572m-.574 0c-.086-.062-.086.712-.146 1.08-.054.3-.054.618.108.98.158.362.197.404.197.314-.038-.725-.158-1.347-.038-1.908.04-.268-.066-.363-.12-.466"/><g fill="#E0B900"><path d="M22.562 7.75c1.552 1.92 2.994 3.716 4.643 5.885 0 .353-.144.57-.555.57-1.7-2.417-2.99-4.374-4.288-6.246-.27-.365.066-.404.2-.21m7.8 13.286c.146.4-.153.604-.464.19-.68-.777-.514-1.753.208-2.635.774-.926 1.746-.926 2.633-.264.52.422.363.47-.264.47-1.753 0-2.42.887-2.115 2.24m1.814-.847c-.73-.252-.928.045-.774.846 10.317 14.54 25.956 35.8 44.382 60.896l-.086.35 1.542.884-.523-2.07-.308.226C62.223 61.49 45.745 38.142 32.174 20.19"/><path d="M22.562 7.75c1.552 1.92 2.994 3.716 4.643 5.885 0 .353-.144.57-.555.57-1.7-2.417-2.99-4.374-4.288-6.246-.27-.365.066-.404.2-.21m7.8 13.286c.146.4-.153.604-.464.19-.68-.777-.514-1.753.208-2.635.774-.926 1.746-.926 2.633-.264.52.422.363.47-.264.47-1.753 0-2.42.887-2.115 2.24m1.814-.847c-.73-.252-.928.045-.774.846 10.317 14.54 25.956 35.8 44.382 60.896l-.086.35 1.542.884-.523-2.07-.308.226C62.223 61.49 45.745 38.142 32.174 20.19"/></g><path fill="#0089C6" d="M57.214 24.01c0-.362 1.34-1.283 3.075-2.473.785-.613 1.5-.832 2.185-.832.187.058.514.106.933.058.4.274.26.463-.214.557-.205-.136-.415-.193-.62-.094-.464.094-.518.414-.803.513l-.216-.304c-.62.422-1.048 1.545-1.508 2.112l-.108-.566c-.314.055-.51.716-.977 1.078.06-.41-.044-.615-.206-.615-.777.518-1.35.785-1.54.565M36.717 51.057c.465 0 .863.168.863.308 0 .21-.398.374-.863.374-.523 0-.928-.165-.928-.375 0-.14.404-.308.927-.308m3.506-.72c.32-.464.672-.67.778-.565.098.16-.05.622-.313 1.043-.306.445-.68.707-.778.55-.11-.105.054-.55.313-1.027m-1.145.627c.214-.37.467-.57.587-.473.084.104 0 .473-.215.825-.26.352-.515.57-.613.462-.118-.11 0-.463.24-.815m-1.024.195c.204-.31.416-.456.454-.41.117.102 0 .41-.147.722-.197.267-.417.416-.514.35-.054-.084 0-.4.207-.662M20.87 47.487l-.2.594c.256.036.462-.326.71-.482l-.205.94c.3.038 1.03-.742 1.557-1.095l-.37.93c.468 0 .77-.676 1.133-1.03l-.21.985c.575-.06.94-.772 1.395-1.203l-.095.956c.405-.062.716-.637 1.126-.996l.21.67c.356.042.563-.472.88-.67l.155.613.783-.777.147.677.875-.315.265.36.728-.36-.065.8.98-.44.107.53.722-.418v.668l.815-.19.06.62 1.247-.523-.423.925 1.09-.678-.157.737 1.186-.522-.67 1.082c.774.058 1.044-.507 1.547-.77l-.352.98c.765-.153 1.438-.77 2.1-1.602.162.265.065.657-.51 1.538.826-.354 1.24-.917 1.538-1.538l-.25 1.084c.524-.055 1.03-.463 1.504-1.194l-.046 1.03c.398-.3.718-.714.92-1.23.514.2 1.083-.092 1.302-.928.306-.796.092-1.048-.572-.796-2.222 1.57-5.168 1.973-9.513.676-2.775-.756-5.664-.858-8.56-.964-1.29-.057-2.373.15-2.884 1.327m6.54-11.08c.223-.365.63-.676 1.164-.986l.073.465 1.25-.412.096.412 1.342-.73c-.757.994-.928 1.408-.665 1.408.21 0 1.18-1.14 1.49-.832-.662 1.038-.046.722 1.1-.222.318.126-.416.838-.302.943.09.112.506-.21 1.33-.754.192-.188.67-.688.77-.43.06.31-.26.464-.41.663-.82.987-.614.837.825-.098.22-.102.512-.36.722-.255-.978 1.296-.557 1.037.88.154.205-.095.458-.464.72-.222-1.81 1.617-1.493 1.81.83.677-1.09 1.252-.83 1.295.87.223.172-.062.373 0 .57-.108-.77.778-.873 1.335-.518 1.137.564-.262 1.3-.564 1.665-.472-.734.733-.667 1.034.25.877.314.12 0 .46-.918 1.09-.162.248-.32 0-.48-.63-.098.364-.26.364-.397.16l-.215 1.344-.303-.048v-.778c-.18-.212-.31-.212-.476 0l-.25 1.034-.48-.256c-.15.368-.362.726-.72.978-.307-.416-.505-.3-.616.044-.197.07-.305-.09-.504-.044-.166.475-.313.565-.578.256-.407.258-.77.514-1.192.933l-.2-.525c-.374.525-.668.838-.873.74l-.365-.367-.58.92-.924.263c0 .253.365.253.986.147.825-.09 2.424-.454 3.47-.766 1.02-.318 2.164-.46 3.4-.975.98-.48 2.11-1.29 3.247-1.876.26.215.063.726-2.11 2.44l-1.03-.317.56.775c-.245.265-.46.373-.72.308l-.932-.456.315.972c-.678 0-.99-.825-1.606-.453l.257.76-1.38-.414.26.938-1.2-.522-.256.523c-.358 0-.56.097-.613.258 2.72.455 5.717-.518 8.817-2.003.164-.058.21.042.21.295-.263 1.23-1.13 2.314-2.517 3.295l.408-1.627c-.942.4-1.98 2.425-2.745 2.662l.824-2.167-2.422 2.015c-.197-.236.11-.832.617-1.532-.723 0-1.944 1.683-2.168 1.598-.502-.26.415-.774.634-1.142-.68-.054-1.136.573-1.726.882-.046-.31.323-.69.937-1.253l-2.01.945c0-.38.776-.677.935-1.2-.935.627-1.76 1.037-1.976.995l.624-.995-1.752.933 1.085-1.133-1.857.884.514-.998-1.337.886.56-1.082c-.662.57-1.28.928-1.648.928.37-.474.607-.826.558-1.08-.607.5-1.232.883-1.488.883l.256-.882c-.505.5-1.088.882-1.696 1.08l.608-1.032c.118-.155.062-.356-.144-.195l-1.396 1.125c.318-.562.466-.93.254-1.085l-.972.523.095-.562-1.127 1.227c-.157-.05.034-.358.208-.928L22 45.322c.618-1.225 1.667-2.06 3.063-2.482 1.643-.5 2.936-.543 3.97-.698 1.797-.265 2.937-.416 4.38-1.103.68-.26 1.46-.556 2.286-1.233.412-.32.246-.42-.22-.354l-1.85.09v-.817l-.73.977-.153-.977-.625 1.713-.262-1.977-.463 2.114-.25-2.054-.777 2.363-.214-2.464-.458 2.514-.47-2.572-.297 2.572-.513-2.413-.21 2.33-.677-2.39-.04 2.474-.785-2.365-.147 2.12-.522-2.072-.206 1.866-.414-1.716-.256 1.872c-.767-1.46-1.09-2.64-.566-3.323.767-.87 1.804-1.08 2.82-.912m5.9-5.64c.153 0 .31.208.4.577.117.36.117.66.047.66-.138.062-.295-.206-.4-.547-.1-.323-.1-.637-.048-.69m-5.27-.6c.78-1.2 1.396-1.572 1.792-.632.53-1.664 1.092-1.818 1.81-.36 1.007 0 1.203 1.504 1.048 3.718l-.937-2.48v1.59c-.616-2.742-4.59-1.118-3.713-1.837m17.128-8.983c1.144.093 2.273.493 3.35 1.117.065.17.104.273-.083.17-.432-.31-.775-.464-1.09-.464.096.465.044.664-.165.62-.413-.73-.765-.83-1.07-.674-.1.055-.17.092-.266.055-.298-.687-.46-.687-.62-.42-.298-.268-.298-.403-.056-.403m-5.82.308c-.27.147-.27.246-.057.304.375-.304.717-.36 1.185.1 0-.67.262-.62.838.204-.216-.824 0-1.03.866.2 0-.66.052-.764.616.37.16.21.313.21.37.112-.317-1.196-.153-1.143.51.1.202.25.315.25.315.098-.056-.82.303-.68 1.09.462.2.253.304.353.355.104-.156-.666.155-.61.838.207.495-.058 1.23.366 2.162 1.198.082.142.187.187.307.142-.526-.92.102-.57.912 0 .545-.256.58-.415.267-.523-1.754-.607-3.185-1.282-4.232-2.056-1.19-.928-1.698-.658-3.098-1.542-1.17-.523-2.274-.267-3.24.52m-2.544 1.642c-.612.212-.612.47-.053.563.27.058.47.058.678 0 .362-.048.512 0 .673.313.256.513.57.73.832.56.143-.147-.993-.965-.428-.965h.33c.872.817 1.706 1.283 1.64 1.135l-.368-.944c-.102-.295.366-.147.577.06l1.193 1.032c.152.205 0-.147-.208-.83-.104-.202.208-.202.41 0 .714.733 1.594 1.97 1.594 1.507v-.472c0-.205.258-.205.42 0 .4.522.983.978.924.783l-.094-.424c-.053-.25.153-.25.458 0l1.232 1.036c.267.2.475.104.373-.046l-.222-.32c-.152-.247-.032-.307.263-.095l1.1.777c.2.14.2-.048-.127-.527h.62c.12.37.38.48.985.725.172.118.207-.098.525-.197l1.493-.465c.463-.154.41-.463 0-.364-2.158.562-4.445-.523-6.865-1.854-3.19-1.702-5.79-1.702-7.954-.988m21.283 1.182c.1.106 0 .253-.162.474-.157.162-.352.2-.472.162-.05-.115 0-.325.172-.48.213-.156.35-.205.46-.156m1.65.424c-.366-.267-.522.353.097.147l.882-.768c.398-.728.16.195.398.146.32-.094.797-1.034.673-1.386l.73-.367c.42-.354.31-.51-.255-.472-.67.53-1.33 1.092-1.905 1.874l-.62.826z"/></g><path d="M160.4 44.047V18.803h-11.903v25.245h-4.392V14.82h20.688v29.227H160.4zM188.93 33.703c0 2.272-.18 4.084-.535 5.44-.356 1.353-.944 2.44-1.765 3.262-1.26 1.26-2.983 1.888-5.172 1.888-1.205 0-2.196-.178-2.976-.533-.78-.355-1.567-.97-2.36-1.847v10.55h-4.187V23.235h4.105v2.176c.41-.438.807-.807 1.19-1.108.383-.3.78-.547 1.19-.74.41-.19.855-.334 1.334-.43.48-.095 1.033-.144 1.663-.144 1.86 0 3.4.445 4.618 1.334 1.217.89 2.032 2.237 2.442 4.043.164.74.28 1.505.35 2.298.068.795.102 1.807.102 3.038zm-4.147-.082c0-2.49-.335-4.26-1.006-5.314-.67-1.053-1.785-1.58-3.345-1.58-1.697 0-2.874.67-3.53 2.01-.273.548-.472 1.225-.595 2.032-.123.807-.185 1.813-.185 3.017 0 2.41.335 4.14 1.006 5.193.67 1.054 1.786 1.58 3.345 1.58 1.56 0 2.668-.533 3.325-1.6.657-1.068.985-2.846.985-5.337zM205.84 44.047V42.16c-.438.437-.855.793-1.252 1.066-.397.274-.814.486-1.252.636-.438.15-.903.252-1.396.308-.493.055-1.04.082-1.642.082-2.327 0-4.112-.54-5.357-1.62-1.245-1.082-1.867-2.635-1.867-4.66 0-1.888.636-3.366 1.91-4.433s3.016-1.602 5.232-1.602h5.583v-1.52c0-1.367-.37-2.352-1.108-2.955-.74-.602-1.93-.903-3.57-.903-1.15 0-2.08.178-2.793.534-.3.137-.582.322-.84.554-.26.232-.542.54-.842.923l-2.75-2.585c.575-.63 1.04-1.094 1.396-1.396.356-.302.794-.562 1.315-.78 1.122-.548 2.668-.822 4.638-.822 5.8 0 8.702 2.38 8.702 7.143v13.916h-4.105zm-.04-9.153h-4.927c-2.49 0-3.735.985-3.735 2.956 0 1.013.33 1.76.985 2.237.657.48 1.696.718 3.12.718 1.642 0 2.812-.33 3.51-.985s1.046-1.75 1.046-3.284v-1.642zM232.973 38.178c0 1.806-.554 3.236-1.662 4.29-1.107 1.053-2.646 1.58-4.617 1.58H216.39V23.236h9.975c1.915 0 3.44.507 4.576 1.52 1.137 1.012 1.705 2.366 1.705 4.062 0 2.08-.972 3.57-2.915 4.475 1.04.465 1.84 1.095 2.4 1.888.562.795.843 1.794.843 2.998zm-4.433-9.072c0-.82-.267-1.457-.8-1.91-.534-.45-1.293-.676-2.278-.676h-4.926v5.254h4.926c2.052 0 3.078-.89 3.078-2.668zm.33 8.784c0-.903-.282-1.607-.843-2.114-.562-.506-1.334-.76-2.32-.76h-5.17v5.788h5.17c.986 0 1.76-.267 2.32-.8.56-.533.842-1.238.842-2.114zM251.855 44.047V29.722l-8.907 14.326h-4.187V23.236h4.188v14.12l8.907-14.12h4.188v20.812h-4.188zM270.614 26.89v17.157h-4.187V26.89h-6.61v-3.654h17.16v3.653h-6.363zM283.42 34.894c.027 1.75.458 3.16 1.293 4.228s2.224 1.6 4.167 1.6c1.04 0 1.93-.184 2.668-.553.738-.37 1.478-.91 2.217-1.623l2.627 2.504c-1.178 1.15-2.334 1.98-3.47 2.484-1.135.507-2.538.76-4.207.76-3.146 0-5.507-.904-7.08-2.71-1.574-1.806-2.36-4.488-2.36-8.045 0-1.643.205-3.114.615-4.414.41-1.3.992-2.4 1.745-3.304.752-.903 1.676-1.6 2.77-2.094 1.095-.493 2.326-.74 3.695-.74 1.34 0 2.552.234 3.633.7 1.08.465 2.004 1.135 2.77 2.01.767.876 1.355 1.93 1.767 3.16.41 1.232.615 2.615.615 4.147v1.888H283.42zm9.36-2.997c-.056-.706-.172-1.385-.35-2.036-.178-.65-.444-1.228-.8-1.73-.356-.503-.82-.904-1.396-1.203-.575-.3-1.287-.448-2.135-.448-.85 0-1.568.148-2.156.447-.59.3-1.067.7-1.437 1.202-.37.502-.636 1.08-.8 1.73-.165.652-.26 1.332-.288 2.037h9.36zM314.41 44.047V26.89h-6.033v6.033c0 2.217-.157 4.037-.472 5.46-.314 1.422-.76 2.558-1.334 3.406-.573.848-1.27 1.436-2.093 1.764-.82.33-1.738.493-2.75.493h-1.97v-3.694h.656c.438 0 .896-.062 1.375-.185s.903-.465 1.272-1.026c.37-.56.678-1.402.924-2.524s.37-2.695.37-4.72v-8.662h14.243v20.812h-4.186zM341.708 37.562c0 1.943-.616 3.51-1.848 4.7s-2.86 1.786-4.884 1.786h-9.688V23.236h4.187v7.84h5.5c2.025 0 3.653.595 4.885 1.786s1.848 2.757 1.848 4.7zm-4.146-.02c0-.952-.288-1.693-.862-2.223-.575-.53-1.382-.796-2.422-.796h-4.803V40.6h4.803c1.04 0 1.847-.272 2.422-.816.574-.544.862-1.29.862-2.243zM361.616 41.338c-.657.657-1.197 1.136-1.62 1.437-.426.3-.91.575-1.46.82-1.04.466-2.284.7-3.734.7-2.955 0-5.247-.938-6.875-2.813-1.63-1.874-2.442-4.522-2.442-7.943 0-3.312.82-5.898 2.463-7.76 1.642-1.86 3.927-2.79 6.854-2.79 1.396 0 2.64.232 3.735.697.548.247 1.033.52 1.458.82.424.303.964.78 1.62 1.438l-2.83 2.75c-.63-.63-1.227-1.115-1.787-1.457-.562-.342-1.307-.513-2.237-.513-1.695 0-2.97.582-3.816 1.745-.85 1.164-1.272 2.88-1.272 5.15 0 4.626 1.696 6.938 5.09 6.938.93 0 1.676-.177 2.237-.533.56-.355 1.155-.848 1.785-1.478l2.83 2.79zM373.97 26.89v17.157h-4.186V26.89h-6.61v-3.654h17.16v3.653h-6.363zM400.693 38.178c0 1.806-.554 3.236-1.662 4.29-1.107 1.053-2.646 1.58-4.617 1.58H384.11V23.236h9.975c1.915 0 3.44.507 4.576 1.52 1.137 1.012 1.705 2.366 1.705 4.062 0 2.08-.972 3.57-2.915 4.475 1.04.465 1.84 1.095 2.4 1.888.562.795.843 1.794.843 2.998zm-4.434-9.072c0-.82-.268-1.457-.8-1.91-.535-.45-1.294-.676-2.28-.676h-4.925v5.254h4.926c2.054 0 3.08-.89 3.08-2.668zm.328 8.784c0-.903-.28-1.607-.842-2.114-.562-.506-1.334-.76-2.32-.76h-5.17v5.788h5.17c.986 0 1.76-.267 2.32-.8.56-.533.842-1.238.842-2.114zM422.818 33.54c0 1.04-.04 1.97-.123 2.79-.082.822-.22 1.56-.41 2.217s-.445 1.252-.76 1.786-.69 1.033-1.13 1.498c-1.587 1.643-3.666 2.464-6.238 2.464-2.545 0-4.61-.82-6.198-2.463-.877-.93-1.507-2.017-1.89-3.262s-.574-2.894-.574-4.946c0-2.025.19-3.66.574-4.905.383-1.245 1.013-2.333 1.89-3.263 1.586-1.642 3.652-2.463 6.197-2.463 2.572 0 4.65.822 6.24 2.464.874.903 1.497 1.978 1.866 3.222.37 1.244.555 2.866.555 4.863zm-4.146.163c0-1.313-.083-2.428-.247-3.345-.164-.917-.52-1.676-1.067-2.278-.383-.41-.835-.74-1.354-.985-.52-.247-1.136-.37-1.847-.37-.712 0-1.328.123-1.848.37-.52.246-.973.588-1.355 1.026-.52.63-.86 1.424-1.026 2.382-.165.958-.247 2.052-.247 3.284 0 1.396.11 2.518.33 3.366.217.85.56 1.546 1.024 2.093.74.876 1.78 1.313 3.12 1.313.71 0 1.334-.123 1.867-.37.534-.246.992-.587 1.375-1.025.492-.602.827-1.354 1.005-2.258.178-.903.267-1.97.267-3.202zM165.41 93.305v-19.54l-6.75 14.245h-3.292l-6.872-14.244v19.54h-4.392V64.077h4.35l8.58 18.185 8.415-18.185h4.432v29.227h-4.473zM193.32 82.797c0 1.04-.04 1.97-.122 2.79-.083.82-.22 1.56-.41 2.218-.193.656-.446 1.252-.76 1.785-.315.533-.69 1.033-1.13 1.498-1.586 1.643-3.666 2.463-6.238 2.463-2.545 0-4.612-.82-6.198-2.462-.876-.93-1.505-2.018-1.888-3.263-.384-1.245-.575-2.895-.575-4.946 0-2.026.19-3.66.574-4.906.383-1.245 1.012-2.333 1.888-3.264 1.586-1.642 3.653-2.463 6.198-2.463 2.572 0 4.652.82 6.24 2.463.874.903 1.497 1.978 1.867 3.223.37 1.245.554 2.866.554 4.864zm-4.145.164c0-1.312-.082-2.428-.246-3.345-.166-.917-.522-1.676-1.068-2.278-.384-.41-.835-.738-1.354-.985-.52-.246-1.136-.37-1.847-.37-.71 0-1.327.124-1.846.37-.52.247-.972.59-1.354 1.026-.52.63-.862 1.424-1.026 2.38-.164.96-.246 2.054-.246 3.285 0 1.396.11 2.518.328 3.365.22.85.56 1.547 1.026 2.094.74.876 1.778 1.313 3.12 1.313.71 0 1.334-.123 1.868-.37s.992-.587 1.375-1.025c.493-.602.827-1.354 1.006-2.258.176-.902.265-1.97.265-3.2zM214.09 90.596c-.656.656-1.197 1.136-1.62 1.437-.425.302-.91.574-1.458.82-1.04.466-2.285.698-3.735.698-2.956 0-5.248-.936-6.875-2.81-1.628-1.875-2.442-4.522-2.442-7.943 0-3.312.82-5.897 2.463-7.76 1.642-1.86 3.926-2.79 6.855-2.79 1.396 0 2.64.232 3.735.698.547.246 1.033.52 1.457.82.424.302.965.78 1.622 1.437l-2.833 2.75c-.63-.63-1.226-1.114-1.787-1.457-.56-.342-1.307-.513-2.237-.513-1.697 0-2.97.582-3.818 1.744-.848 1.164-1.272 2.88-1.272 5.152 0 4.625 1.697 6.937 5.09 6.937.93 0 1.676-.178 2.237-.533.56-.355 1.156-.848 1.786-1.478l2.83 2.792zM219.016 93.305V72.493h4.228v9.934l7.923-9.934h5.008l-8.292 9.77 8.907 11.042h-5.13l-8.416-10.796v10.795h-4.228zM256.698 87.435c0 1.807-.554 3.236-1.662 4.29s-2.647 1.58-4.618 1.58h-10.303V72.493h9.975c1.915 0 3.44.507 4.576 1.52 1.136 1.012 1.704 2.367 1.704 4.063 0 2.08-.972 3.57-2.915 4.474 1.04.466 1.84 1.095 2.4 1.89s.843 1.79.843 2.995zm-4.434-9.072c0-.82-.267-1.457-.8-1.91-.534-.45-1.293-.676-2.278-.676h-4.926v5.254h4.926c2.053 0 3.078-.887 3.078-2.667zm.33 8.784c0-.903-.282-1.607-.843-2.114-.56-.506-1.333-.76-2.318-.76h-5.172v5.788h5.172c.985 0 1.758-.266 2.32-.8.56-.532.84-1.237.84-2.113zM278.905 86.82c0 .957-.164 1.832-.492 2.626-.33.794-.795 1.478-1.396 2.053-.602.573-1.313 1.02-2.134 1.333-.82.314-1.738.472-2.75.472h-9.647V72.493h4.187v7.84h5.46c1.012 0 1.93.158 2.75.473.82.314 1.532.76 2.134 1.334s1.067 1.26 1.396 2.053c.328.793.492 1.668.492 2.626zm-4.146-.02c0-.952-.296-1.693-.884-2.223-.59-.53-1.402-.796-2.442-.796h-4.762v6.076h4.762c1.04 0 1.854-.27 2.442-.815.588-.542.883-1.29.883-2.24zm7.018 6.505V72.493h4.188v20.812h-4.188z"/></svg>