<svg xmlns="http://www.w3.org/2000/svg" width="344.764" height="38.549" viewBox="0 0 344.764 38.549"><path fill="#ED1847" d="M0 .348v38.17h38.17V.35H0zm33.4 33.4H4.77V5.118H33.4v28.63zM22.73 32.11L10.055 19.433 22.73 6.756v6.748l-5.93 5.93 5.93 5.93v6.746z"/><g fill="#4B4C4D"><path d="M58.424.51c.907-.174 1.795-.174 2.684 0l-7.22 12.547c-.89.174-1.776.174-2.685 0l2.684-4.613L49.313.51c.888-.174 1.775-.174 2.684 0L55.22 6.24 58.424.51zM73.89.51c.83-.154 1.66-.154 2.49 0v12.547c-.83.155-1.66.155-2.49 0V7.73h-6.08v5.327c-.832.155-1.662.155-2.492 0V.51c.83-.154 1.66-.154 2.49 0v5.135h6.08V.51zM92.464 13.057c-.83.155-1.66.155-2.49 0v-8.34l-6.603 8.34c-.655.136-1.312.136-1.968 0V.51c.83-.154 1.66-.154 2.49 0v8.34L90.475.51c.676-.136 1.332-.136 1.97 0l.02 12.547zM102.94.547c1.18 0 2.144.31 2.897.908.752.598 1.12 1.37 1.12 2.316 0 1.314-.6 2.24-1.776 2.8.657.252 1.18.637 1.544 1.158.367.52.56 1.12.56 1.815 0 1.08-.384 1.93-1.157 2.567-.77.637-1.814.945-3.127.945h-5.27V.51l5.21.037zm-2.758 5.33h2.53c.52 0 .944-.137 1.253-.426s.464-.675.464-1.177c0-.52-.156-.926-.465-1.217-.31-.29-.732-.424-1.293-.424h-2.47l-.02 3.244zm0 5.172h2.625c.6 0 1.063-.155 1.39-.464s.502-.733.502-1.273c0-.52-.154-.927-.483-1.217-.328-.29-.81-.443-1.448-.443h-2.587v3.396zM120.264 10.973c.135.694.135 1.39 0 2.084h-8.63V.51h8.63c.135.693.135 1.39 0 2.084h-6.12v3.05h5.503c.135.696.135 1.39 0 2.085h-5.502v3.243h6.12zM129.458.51c1.41 0 2.548.385 3.397 1.157s1.274 1.776 1.274 2.993c0 1.216-.426 2.22-1.275 2.992-.85.77-1.988 1.158-3.397 1.158h-2.26v4.246c-.83.155-1.66.155-2.49 0V.51h4.75zm-.02 6.215c.657 0 1.178-.192 1.564-.56.387-.366.58-.868.58-1.505s-.193-1.14-.58-1.506c-.386-.367-.906-.56-1.563-.56h-2.26v4.13h2.26zM145.27 11.223c1.256 0 2.53-.404 3.823-1.234.077.134.116.5.116 1.118s-.04 1.004-.117 1.178c-1.1.695-2.413 1.043-3.938 1.043-2.085 0-3.764-.638-5.04-1.894-1.272-1.254-1.91-2.818-1.91-4.672s.638-3.416 1.91-4.672C141.392.838 143.07.2 145.156.2c1.525 0 2.838.347 3.938 1.042.077.174.116.56.116 1.178s-.04.984-.117 1.12c-1.294-.83-2.567-1.235-3.822-1.235-1.293 0-2.373.405-3.242 1.234-.87.83-1.293 1.91-1.293 3.243s.443 2.412 1.313 3.243 1.95 1.235 3.243 1.235l-.02-.037zM165.258 13.057c-.83.155-1.66.155-2.49 0v-8.34l-6.603 8.34c-.656.136-1.313.136-1.97 0V.51c.83-.154 1.66-.154 2.49 0v8.34L163.27.51c.675-.136 1.33-.136 1.968 0l.02 12.547zM179.334.51c.135.693.135 1.39 0 2.084h-3.668v10.463c-.83.155-1.66.155-2.49 0V2.594h-3.668c-.135-.695-.135-1.39 0-2.085h9.826zM192.252 10.973c.135.694.135 1.39 0 2.084h-8.63V.51h8.63c.135.693.135 1.39 0 2.084h-6.12v3.05h5.5c.138.696.138 1.39 0 2.085h-5.5v3.243h6.12zM205.99.51c.135.693.135 1.39 0 2.084h-3.668v10.463c-.83.155-1.66.155-2.49 0V2.594h-3.668c-.135-.695-.135-1.39 0-2.085h9.826zM60.316 34.443c1.822 0 3.768-.648 5.837-1.916.154.248.216.96.186 2.162-.032 1.204-.094 1.976-.217 2.315-1.668 1.02-3.707 1.543-6.115 1.543-3.428 0-6.176-1.018-8.244-3.025-2.07-2.008-3.088-4.508-3.088-7.473s1.05-5.467 3.12-7.473c2.067-2.008 4.815-3.025 8.243-3.025 2.407 0 4.446.524 6.113 1.543.124.34.186 1.11.216 2.316.03 1.204-.03 1.915-.187 2.16-2.068-1.265-4.014-1.913-5.836-1.913-1.883 0-3.458.588-4.725 1.762-1.266 1.17-1.883 2.716-1.883 4.66s.616 3.49 1.882 4.663c1.267 1.174 2.842 1.76 4.725 1.76l-.03-.06zM88.696 38.148c-1.637.277-3.272.277-4.91 0V26.383L74.43 38.148c-1.266.217-2.563.217-3.86 0v-20.07c1.638-.28 3.274-.28 4.91 0V29.84l9.356-11.765c1.266-.216 2.563-.216 3.86 0v20.07zM106.175 18.077c1.637-.278 3.273-.278 4.91 0v20.07c-1.637.278-3.273.278-4.91 0v-8.09H97.87v8.09c-1.638.278-3.274.278-4.91 0v-20.07c1.636-.278 3.272-.278 4.91 0v7.874h8.305v-7.873zM129.428 34.04c.248 1.36.248 2.718 0 4.108H115.44v-20.07h13.988c.248 1.39.248 2.746 0 4.105h-9.047v3.768h8c.245 1.39.245 2.75 0 4.108h-8v3.982h9.048zM140.7 18.077c2.255 0 4.076.617 5.466 1.853 1.39 1.234 2.1 2.87 2.1 4.88s-.71 3.642-2.1 4.878c-1.39 1.234-3.21 1.852-5.466 1.852h-2.933v6.61c-1.637.276-3.273.276-4.91 0V18.076h7.843zm-.03 9.294c.71 0 1.327-.216 1.82-.647s.742-1.08.742-1.945-.247-1.514-.74-1.945-1.082-.648-1.792-.648h-2.933v5.25l2.903-.064zM165.034 18.077c.247 1.39.247 2.747 0 4.106h-8.275v15.965c-1.638.277-3.274.277-4.91 0v-20.07h13.184zM186.465 38.148c-1.637.277-3.272.277-4.91 0V26.383L172.2 38.15c-1.266.216-2.563.216-3.86 0V18.076c1.637-.278 3.273-.278 4.91 0v11.765l9.356-11.765c1.266-.216 2.563-.216 3.86 0v20.07zM206.136 38.117c-1.636.277-3.272.277-4.91 0v-6.793h-1.914l-4.415 6.793c-.71.123-1.605.186-2.688.186-1.08 0-1.977-.063-2.688-.186l4.88-7.535c-1.204-.523-2.13-1.297-2.81-2.314-.68-1.02-1.02-2.193-1.02-3.52 0-1.978.68-3.583 2.038-4.817 1.358-1.234 3.18-1.852 5.435-1.852h8.12l-.03 20.04zm-8.06-15.965c-.71 0-1.297.217-1.79.648s-.74 1.05-.74 1.885.245 1.45.74 1.883 1.11.648 1.82.648h3.09v-5.064h-3.12z"/></g><path fill="#ED1651" d="M219.46.45h1.636v37.724h-1.635z"/><g fill="#4B4C4D"><path d="M252.213 14.206V.368c.834-.172 1.668-.172 2.527 0v15.948h-20.12V.368c.86-.172 1.693-.172 2.503 0v13.838h6.306V.368c.81-.172 1.644-.172 2.502 0v13.838h6.28zM263.936 8.12l7.655 8.196c-.343.074-.858.098-1.52.098s-1.153-.024-1.497-.098l-7.312-7.803v7.803c-.81.172-1.643.172-2.502 0V.368c.86-.172 1.693-.172 2.503 0v7.336l6.944-7.336c.368-.074.86-.1 1.52-.1s1.18.026 1.522.1l-7.31 7.753zM281.4 0c2.454 0 4.467.81 6.037 2.43 1.57 1.594 2.355 3.582 2.355 5.913 0 2.33-.785 4.318-2.355 5.938-1.57 1.596-3.583 2.406-6.036 2.406-2.453 0-4.465-.81-6.035-2.405-1.57-1.618-2.355-3.606-2.355-5.937 0-2.33.785-4.318 2.355-5.914C276.935.81 278.947 0 281.4 0zm0 2.11c-1.668 0-3.066.59-4.17 1.767-1.104 1.153-1.67 2.65-1.67 4.466 0 1.815.565 3.312 1.67 4.49 1.104 1.153 2.502 1.742 4.17 1.742 1.67 0 3.067-.59 4.172-1.742 1.104-1.178 1.67-2.674 1.67-4.49 0-1.816-.565-3.313-1.67-4.466-1.104-1.178-2.503-1.767-4.17-1.767zM306.3.368v15.948c-.858.172-1.692.172-2.502 0V2.478h-5.89l-.956 9.373c-.32 3.24-1.645 4.835-4.195 4.835-.49 0-.908-.05-1.276-.172-.146-.71-.146-1.423 0-2.135.222.05.418.074.614.074 1.374 0 2.16-.785 2.355-2.822L295.626.368H306.3zM324.478 16.316c-.86.172-1.742.172-2.602 0l-1.62-4h-6.942l-1.595 4c-.86.172-1.743.172-2.603 0L315.742.368c.688-.147 1.398-.147 2.11 0l6.626 15.948zm-10.355-6.11h5.35l-2.675-6.624-2.675 6.625zM237.123 28.115h3.41c1.816 0 3.24.466 4.294 1.423 1.056.957 1.57 2.135 1.57 3.558 0 1.398-.515 2.6-1.57 3.558-1.055.957-2.478 1.423-4.294 1.423h-5.913v-15.95h10.256c.147.713.147 1.4 0 2.11h-7.753v3.878zm.024 7.852h3.41c2.086 0 3.313-1.227 3.313-2.87 0-1.67-1.227-2.896-3.313-2.896h-3.41v5.767zM263.373 38.077c-.81.172-1.644.172-2.503 0V26.324l-9.226 11.753c-.662.123-1.35.123-2.012 0v-15.95c.858-.17 1.692-.17 2.503 0v11.754l9.25-11.752c.662-.147 1.324-.147 1.987 0v15.95zM278.41 33.832c0 1.423-.54 2.552-1.646 3.386-1.08.834-2.502 1.25-4.244 1.25-2.037 0-3.778-.465-5.178-1.397-.073-.17-.122-.588-.146-1.202 0-.613.05-1.006.146-1.153 1.546 1.104 3.24 1.644 5.055 1.644 1.963 0 3.46-1.056 3.46-2.823 0-1.497-1.006-2.577-2.97-2.577h-2.65c-.17-.662-.17-1.325 0-1.987h2.602c1.57 0 2.6-1.055 2.6-2.527 0-1.497-1.128-2.576-2.993-2.576-1.668 0-3.287.54-4.857 1.62-.1-.123-.147-.515-.147-1.13.024-.612.073-1.03.147-1.2 1.374-.933 3.042-1.4 4.98-1.4 1.645 0 2.97.418 3.926 1.228.957.81 1.447 1.816 1.447 3.067 0 1.693-.932 3.116-2.404 3.78 1.863.61 2.87 2.132 2.87 3.997zM292.686 28.9v-6.772c.81-.17 1.644-.17 2.502 0v15.95c-.858.17-1.692.17-2.502 0V31.01h-8.76v7.066c-.81.172-1.644.172-2.503 0V22.128c.86-.17 1.693-.17 2.503 0V28.9h8.76zM301.734 35.967h8.343c.17.71.17 1.398 0 2.11H299.23v-15.95h10.847c.17.713.17 1.4 0 2.11h-8.343V28.9h7.582c.146.71.146 1.398 0 2.11h-7.582v4.957zM326.488 34.715c.098.123.147.515.122 1.128 0 .613-.05 1.03-.122 1.202-1.398.933-3.116 1.4-5.153 1.4-2.576 0-4.686-.81-6.306-2.406-1.596-1.596-2.405-3.583-2.405-5.94s.81-4.342 2.404-5.937c1.62-1.595 3.728-2.404 6.305-2.404 2.037 0 3.755.465 5.153 1.397.073.172.122.59.122 1.202.025.613-.024 1.005-.122 1.128-1.595-1.08-3.288-1.62-5.03-1.62-1.79 0-3.288.59-4.49 1.767-1.202 1.153-1.79 2.65-1.79 4.466 0 1.816.588 3.314 1.79 4.49 1.202 1.154 2.7 1.743 4.49 1.743 1.742 0 3.436-.538 5.03-1.618zM344.764 38.077c-.86.172-1.742.172-2.602 0l-1.62-4H333.6l-1.595 4c-.86.172-1.742.172-2.602 0l6.625-15.95c.688-.146 1.398-.146 2.11 0l6.626 15.95zm-10.355-6.11h5.348l-2.675-6.625-2.674 6.625z"/></g></svg>