<svg width="40" height="40" fill="none" xmlns="http://www.w3.org/2000/svg"><g fill-rule="evenodd" clip-rule="evenodd"><path d="M20 40c11.046 0 20-8.954 20-20S31.046 0 20 0 0 8.954 0 20s8.954 20 20 20z" fill="url(#paint0_linear)"/><path d="M16.333 29.167c-.648 0-.538-.245-.761-.862l-1.906-6.27 14.667-8.701" fill="#C8DAEA"/><path d="M16.333 29.167c.5 0 .721-.229 1-.5L20 26.074l-3.326-2.006" fill="#A9C9DD"/><path d="M16.673 24.068l8.06 5.955c.92.507 1.584.245 1.813-.854l3.28-15.46c.337-1.347-.513-1.958-1.393-1.559L9.168 19.58c-1.315.527-1.307 1.261-.24 1.588l4.944 1.543 11.446-7.22c.54-.329 1.036-.152.63.209" fill="url(#paint1_linear)"/></g><defs><linearGradient id="paint0_linear" x1="15.002" y1="1.668" x2="5.002" y2="25" gradientUnits="userSpaceOnUse"><stop stop-color="#37AEE2"/><stop offset="1" stop-color="#1E96C8"/></linearGradient><linearGradient id="paint1_linear" x1="17.496" y1="21.228" x2="19.633" y2="28.141" gradientUnits="userSpaceOnUse"><stop stop-color="#EFF7FC"/><stop offset="1" stop-color="#fff"/></linearGradient></defs></svg>