<svg width="80" height="80" fill="none" xmlns="http://www.w3.org/2000/svg"><g fill-rule="evenodd" clip-rule="evenodd"><path d="M0 40C0 17.909 17.909 0 40 0s40 17.909 40 40-17.909 40-40 40S0 62.091 0 40z" fill="#4C6C91"/><path d="M42.093 51.794s.77-.084 1.165-.5c.36-.381.348-1.1.348-1.1s-.048-3.358 1.54-3.853c1.565-.488 3.575 3.246 5.708 4.682 1.61 1.086 2.834.848 2.834.848l5.699-.078s2.98-.18 1.567-2.48c-.117-.189-.824-1.702-4.236-4.812-3.575-3.255-3.095-2.728 1.208-8.36 2.621-3.429 3.668-5.522 3.34-6.417-.31-.857-2.238-.63-2.238-.63l-6.415.04s-.476-.064-.829.143c-.344.203-.567.676-.567.676s-1.014 2.653-2.369 4.91c-2.857 4.76-3.998 5.013-4.466 4.718-1.087-.69-.816-2.77-.816-4.247 0-4.615.714-6.538-1.387-7.036-.697-.166-1.21-.274-2.995-.293-2.29-.022-4.226.008-5.323.535-.73.35-1.294 1.133-.95 1.178.424.055 1.384.254 1.893.934.657.878.634 2.849.634 2.849s.378 5.433-.883 6.106c-.863.463-2.049-.481-4.597-4.801-1.304-2.212-2.289-4.658-2.289-4.658s-.19-.457-.53-.703c-.411-.297-.985-.389-.985-.389l-6.096.039s-.916.024-1.252.416c-.298.346-.023 1.065-.023 1.065s4.773 10.961 10.178 16.486c4.956 5.063 10.582 4.732 10.582 4.732h2.55z" fill="#fff"/></g></svg>