<svg width="37" height="24" viewBox="0 0 37 24" fill="none" xmlns="http://www.w3.org/2000/svg">
<path d="M34.2857 0H2.28571C1.02857 0 0 1.02857 0 2.28571V21.7143C0 22.9714 1.02857 24 2.28571 24H34.2857C35.5429 24 36.5714 22.9714 36.5714 21.7143V2.28571C36.5714 1.02857 35.5429 0 34.2857 0ZM32.2857 2.28571L18.2857 13.7143L4.28571 2.28571H32.2857ZM2.28571 20.2857V3.82857L12.6286 12.4L2.28571 20.2857ZM3.77143 21.7143L14.2286 13.7714L17.8286 16.8C18.0571 17.0286 18.4571 17.0286 18.6857 16.8L22.2857 13.7714L32.8 21.7143H3.77143ZM34.2857 20.2857L23.9429 12.4L34.2857 3.82857V20.2857Z" fill="black" fill-opacity="0.7"/>
</svg>
